<?xml version="1.0" standalone="no"?>
<!DOCTYPE svg PUBLIC "-//W3C//DTD SVG 1.1//EN" "http://www.w3.org/Graphics/SVG/1.1/DTD/svg11.dtd" >
<svg xmlns="http://www.w3.org/2000/svg">
<metadata>
Created by FontForge 20120731 at Wed Dec 28 19:58:18 2016
 By admin
</metadata>
<defs>
<font id="iconfont" horiz-adv-x="1024" >
  <font-face 
    font-family="iconfont"
    font-weight="500"
    font-stretch="normal"
    units-per-em="1024"
    panose-1="2 0 6 3 0 0 0 0 0 0"
    ascent="896"
    descent="-128"
    x-height="792"
    bbox="-0.457144 -128.182 1939.18 896"
    underline-thickness="0"
    underline-position="0"
    unicode-range="U+0078-E6F6"
  />
<missing-glyph 
 />
    <glyph glyph-name=".notdef" 
 />
    <glyph glyph-name=".notdef" 
 />
    <glyph glyph-name=".null" horiz-adv-x="0" 
 />
    <glyph glyph-name="nonmarkingreturn" horiz-adv-x="341" 
 />
    <glyph glyph-name="x" unicode="x" horiz-adv-x="1001" 
d="M281 543q-27 -1 -53 -1h-83q-18 0 -36.5 -6t-32.5 -18.5t-23 -32t-9 -45.5v-76h912v41q0 16 -0.5 30t-0.5 18q0 13 -5 29t-17 29.5t-31.5 22.5t-49.5 9h-133v-97h-438v97zM955 310v-52q0 -23 0.5 -52t0.5 -58t-10.5 -47.5t-26 -30t-33 -16t-31.5 -4.5q-14 -1 -29.5 -0.5
t-29.5 0.5h-32l-45 128h-439l-44 -128h-29h-34q-20 0 -45 1q-25 0 -41 9.5t-25.5 23t-13.5 29.5t-4 30v167h911zM163 247q-12 0 -21 -8.5t-9 -21.5t9 -21.5t21 -8.5q13 0 22 8.5t9 21.5t-9 21.5t-22 8.5zM316 123q-8 -26 -14 -48q-5 -19 -10.5 -37t-7.5 -25t-3 -15t1 -14.5
t9.5 -10.5t21.5 -4h37h67h81h80h64h36q23 0 34 12t2 38q-5 13 -9.5 30.5t-9.5 34.5q-5 19 -11 39h-368zM336 498v228q0 11 2.5 23t10 21.5t20.5 15.5t34 6h188q31 0 51.5 -14.5t20.5 -52.5v-227h-327z" />
    <glyph glyph-name="jiantou" unicode="&#xe617;" 
d="M300 832l456 -447l-456 -446l-35 34l421 412l-421 412z" />
    <glyph glyph-name="gougou" unicode="&#xe61a;" 
d="M965 746l-634 -634l-272 272l-45 -45l272 -272v0l45 -45l45 45l634 634z" />
    <glyph glyph-name="imgtopbarlogo" unicode="&#xe60c;" horiz-adv-x="1967" 
d="M1871 18q-123 11 -211 99q-101 101 -101 244v145q0 30 -21 51.5t-51 21.5t-51.5 -21.5t-21.5 -51.5v-145q0 -143 -101 -244q-88 -88 -211 -99q-30 -2 -50 -25t-18 -53t24.5 -50t52.5 -18q114 10 210.5 68.5t158.5 152.5q2 4 6.5 4t7.5 -4q61 -94 157.5 -152.5
t210.5 -68.5q30 -2 52.5 18t24.5 50t-18 53t-50 25v0zM1070 233v0q0 -30 21.5 -51.5t51.5 -21.5t51.5 21.5t21.5 51.5v338v0q0 74 79 127t191.5 53t192 -53t79.5 -127v-338q0 -30 21 -51.5t51 -21.5t51.5 21.5t21.5 51.5v338q0 88 -55.5 163t-151.5 118.5t-209.5 43.5
t-209 -43.5t-151.5 -118.5t-56 -163v0v-338v0zM849 18q-123 11 -211 99q-101 101 -101 244v145q0 30 -21.5 51.5t-51.5 21.5t-51 -21.5t-21 -51.5v-145q0 -143 -101 -244q-88 -88 -211 -99q-30 -2 -50 -25t-18 -53t24.5 -50t52.5 -18q114 10 210.5 68.5t157.5 152.5
q3 4 7.5 4t6.5 -4q61 -94 158 -152.5t211 -68.5q30 -2 52.5 18t24.5 50t-18 53t-50 25v0zM48 571v0q0 88 55.5 163t151.5 118.5t209 43.5t209 -43.5t152 -118.5t56 -163v-338q0 -30 -21.5 -51.5t-51.5 -21.5t-51.5 21.5t-21.5 51.5v338q0 74 -79 127t-191.5 53t-192 -53
t-79.5 -127v0v-338q0 -30 -21 -51.5t-51 -21.5t-51.5 21.5t-21.5 51.5v0v338v0z" />
    <glyph glyph-name="ictopbarmine" unicode="&#xe645;" 
d="M512 895q-104 0 -198.5 -40.5t-163 -109t-109 -163.5t-40.5 -199t40.5 -198.5t109 -163t163 -109t198.5 -40.5t198.5 40.5t163 109t109 163t40.5 198.5t-40.5 199t-109 163.5t-163 109t-198.5 40.5zM292 -20q-10 36 -10 72q0 70 32 130.5t87 94.5l31 19l-29 23
q-33 25 -51.5 62t-18.5 79q0 74 52.5 126.5t126.5 52.5t126.5 -52.5t52.5 -126.5q0 -42 -18.5 -79t-51.5 -62l-29 -23l31 -19q55 -34 87 -94.5t32 -130.5q0 -36 -9 -72q-103 -57 -221 -57t-220 57zM791 18q2 19 2 34q0 74 -30.5 139.5t-84.5 109.5q64 66 64 159
q0 95 -67.5 162.5t-162.5 67.5t-162.5 -67.5t-67.5 -162.5q0 -93 64 -159q-54 -44 -84.5 -109.5t-30.5 -139.5q0 -15 2 -34q-84 65 -132.5 160.5t-48.5 204.5q0 94 36.5 179t98 146.5t147 98t178.5 36.5t178.5 -36.5t147 -98t98 -146.5t36.5 -179q0 -109 -48.5 -204.5
t-132.5 -160.5z" />
    <glyph glyph-name="yuanxingxuankuangweixuan" unicode="&#xe600;" 
d="M512 -32v0q172 0 294 122t122 294t-122 294t-294 122t-294 -122t-122 -294t122 -294t294 -122v0zM512 -96v0q-98 0 -186.5 38t-153 102.5t-102.5 153t-38 186.5t38 186.5t102.5 153t153 102.5t186.5 38t186.5 -38t153 -102.5t102.5 -153t38 -186.5t-38 -186.5
t-102.5 -153t-153 -102.5t-186.5 -38v0z" />
    <glyph glyph-name="yuanxingxuankuangdanxuan" unicode="&#xe601;" 
d="M512 -32v0q172 0 294 122t122 294t-122 294t-294 122t-294 -122t-122 -294t122 -294t294 -122v0zM512 -96v0q-98 0 -186.5 38t-153 102.5t-102.5 153t-38 186.5t38 186.5t102.5 153t153 102.5t186.5 38t186.5 -38t153 -102.5t102.5 -153t38 -186.5t-38 -186.5
t-102.5 -153t-153 -102.5t-186.5 -38v0zM512 384zM288 384q0 93 65.5 158.5t158.5 65.5t158.5 -65.5t65.5 -158.5t-65.5 -158.5t-158.5 -65.5t-158.5 65.5t-65.5 158.5z" />
    <glyph glyph-name="yuanxingxuankuangfuxuan" unicode="&#xe602;" 
d="M512 -96q98 0 186.5 38t153 102.5t102.5 153t38 186.5t-38 186.5t-102.5 153t-153 102.5t-186.5 38t-186.5 -38t-153 -102.5t-102.5 -153t-38 -186.5t38 -186.5t102.5 -153t153 -102.5t186.5 -38zM241 372l226 -226l-45 -46l-226 227zM807 576l45 -46l-385 -384l-45 45z
" />
    <glyph glyph-name="ictopbarback" unicode="&#xe603;" 
d="M62 384l442 419q8 7 8 17t-7.5 17.5t-18.5 7.5t-18 -7l-460 -437q-8 -7 -8 -17t8 -17l460 -437q7 -7 18 -7t18.5 7.5t7.5 17.5t-8 17z" />
    <glyph glyph-name="ictopbarhome" unicode="&#xe605;" 
d="M770 -97h-103q-32 0 -54.5 22.5t-22.5 53.5v198q0 11 -7.5 18.5t-17.5 7.5h-103q-10 0 -17.5 -7.5t-7.5 -18.5v-198q0 -31 -22.5 -53.5t-54.5 -22.5h-102q-32 0 -54.5 22.5t-22.5 53.5v326q0 11 -7.5 18.5t-18.5 7.5h-51q-38 0 -49.5 26.5t13.5 54.5l392 435
q21 23 53.5 23t53.5 -23l392 -435q25 -28 13.5 -54.5t-49.5 -26.5h-51q-11 0 -18.5 -7.5t-7.5 -18.5v-326q0 -31 -22.5 -53.5t-53.5 -22.5v0zM462 254h103q32 0 54.5 -22.5t22.5 -54.5v-198q0 -10 7.5 -17.5t17.5 -7.5h103q10 0 17.5 7.5t7.5 17.5v326q0 32 22.5 54.5
t54.5 22.5h45l-388 431q-6 7 -15 7t-16 -7l-388 -431h45q32 0 54.5 -22.5t22.5 -54.5v-326q0 -10 7.5 -17.5t18.5 -7.5h102q11 0 18.5 7.5t7.5 17.5v198q0 32 22.5 54.5t53.5 22.5v0z" />
    <glyph glyph-name="artboard1" unicode="&#xe607;" 
d="M549 384l391 391q7 8 7 18.5t-7.5 18t-18 7.5t-18.5 -7l-391 -391l-390 390q-8 8 -18.5 8t-18.5 -8v0q-8 -8 -8 -18.5t8 -18.5l390 -390l-391 -391q-7 -8 -7 -18.5t7.5 -18t18 -7.5t18.5 7l391 391l390 -390q8 -8 18.5 -8t18.5 8v0q8 8 8 18.5t-8 18.5z" />
    <glyph glyph-name="icczlfmoney" unicode="&#xe608;" 
d="M786 556q12 12 20 22q95 118 41 197q-22 33 -67 51t-92.5 18.5t-94.5 -6.5q-6 9 -14 17q-77 75 -267 11q-39 -13 -66.5 -32t-40 -39t-17 -36t-4.5 -32q-1 -70 70 -137q-11 -13 -23.5 -28.5t-35 -44.5t-42 -60t-41 -69.5t-36.5 -78t-24.5 -80t-8.5 -82t14 -77.5
q55 -155 310 -192q51 -6 126 -6q53 0 103.5 4t112.5 17.5t110 35.5t89 60.5t59 90.5q17 47 17 97t-14 95.5t-34 87t-48.5 79.5t-52.5 65t-49 52v0zM887 108q-16 -46 -63.5 -78t-105 -47t-125.5 -21t-120.5 -5t-94.5 6q-203 29 -241 136q-12 28 -9 64t12 71t27.5 73t37.5 71
t42 65t41.5 55t34.5 41q42 -26 87 -42q80 -28 155 -28q83 0 151 36q17 -16 33.5 -33.5t38.5 -44.5t40.5 -54t35 -61t25.5 -66t9 -68.5t-11 -69.5v0zM340 785q74 25 123 25q40 0 57 -16q4 -4 7 -11l2 -6q2 -6 5 -11q7 -34 -5 -74q-5 -17 3 -33t25 -21t32.5 3t20.5 25
q14 44 11 91q50 7 96 -1.5t60 -27.5q18 -28 -37 -96q-27 -33 -63.5 -51.5t-69.5 -23t-69.5 -1t-58 9t-40.5 12.5q-75 27 -122.5 70.5t-47.5 77.5q0 35 71 59zM656 370l-33 28l-90 -109l-90 109l-33 -28l95 -114h-121v-43h128v-42h-128v-43h128v-85h42v85h128v43h-128v42h128
v43h-121z" />
    <glyph glyph-name="ictopbarsearch" unicode="&#xe609;" horiz-adv-x="1025" 
d="M1013 377q23 87 0 172t-85.5 147.5t-150 86t-173 0t-148.5 -85.5t-86.5 -149t0 -172t86 -147.5t149.5 -85.5q118 -32 229 21v-0.5t1 -0.5l128 -201q5 -10 15 -12.5t19.5 2.5t12 15.5t-2.5 19.5l-128 201q0 1 -0.5 1h-0.5q103 70 135 188zM618 189q-74 20 -126.5 73
t-72.5 125.5t0 146.5t73 126.5t125.5 72.5t146.5 0t127 -73t72.5 -125.5t-0.5 -146.5t-73 -127t-125.5 -72.5t-146.5 0.5zM538 -25.5q0 10.5 -7.5 18t-18.5 7.5h-461q-10 0 -17.5 -7.5t-7.5 -18t7.5 -18t17.5 -7.5h461q11 0 18.5 7.5t7.5 18zM51 333h231q10 0 17.5 7.5
t7.5 18t-7.5 18t-17.5 7.5h-231q-10 0 -17.5 -7.5t-7.5 -18t7.5 -18t17.5 -7.5zM282 717q10 0 17.5 7.5t7.5 18t-7.5 18t-17.5 7.5h-231q-10 0 -17.5 -7.5t-7.5 -18t7.5 -18t17.5 -7.5h231z" />
    <glyph glyph-name="iczhuancfilter" unicode="&#xe60a;" 
d="M325 -60v451q0 24 -9 35l-300 322q-24 26 -13 53q12 27 49 27h888q38 0 50 -28q12 -26 -12 -52l-302 -321q-9 -10 -9 -36v-246q0 -14 -10 -24t-24.5 -10t-24.5 10t-10 24v246q0 53 28 83l268 285h-795l267 -287q28 -30 28 -81v-451q0 -14 -10 -24t-24.5 -10t-24.5 10
t-10 24z" />
    <glyph glyph-name="iczhuanctime" unicode="&#xe60b;" 
d="M512 896q-139 0 -257 -68.5t-186.5 -186.5t-68.5 -257t68.5 -257t186.5 -186.5t257 -68.5t257 68.5t186.5 186.5t68.5 257t-68.5 257t-186.5 186.5t-257 68.5v0zM512 -43q-116 0 -214 57.5t-155.5 155.5t-57.5 214t57.5 214t155.5 155.5t214 57.5t214 -57.5t155.5 -155.5
t57.5 -214t-57.5 -214t-155.5 -155.5t-214 -57.5v0zM555 427v256q0 17 -12.5 29.5t-30.5 12.5t-30.5 -12.5t-12.5 -29.5v-299q0 -18 12.5 -30.5t30.5 -12.5h299q17 0 29.5 12.5t12.5 30.5t-12.5 30.5t-29.5 12.5h-256z" />
    <glyph glyph-name="icdefaulthot" unicode="&#xe60d;" 
d="M512 896q-139 0 -257 -68.5t-186.5 -186.5t-68.5 -257t68.5 -257t186.5 -186.5t257 -68.5t257 68.5t186.5 186.5t68.5 257t-68.5 257t-186.5 186.5t-257 68.5v0zM768 276q0 -106 -75 -181t-181 -77h-6q-59 0 -107.5 24t-79 63.5t-47 89t-16.5 103.5l22 86l40 61
q87 148 23 176q7 2 17 2q11 0 20.5 -3.5t22.5 -13.5t19 -29t10 -50.5t-3 -77.5q2 4 6 11.5t13.5 31t15 46.5t5.5 54t-8.5 57.5t-33 54t-62.5 46.5q4 -1 12 -2.5t33.5 -8t47 -16.5t53.5 -28t53.5 -43t47 -60t33.5 -79.5t12.5 -102.5t-14.5 -128q3 0 8 1.5t18 11.5t22 26
t14 49.5t1 78.5q3 -3 7.5 -8.5t17 -23t21 -36.5t14.5 -47.5t3 -57.5h1v0zM716 275q-30 -38 -70 -42l-67 -6l14 65q40 185 -36 292q-19 26 -44 48q4 -21 2.5 -44.5t-3.5 -42t-8.5 -38l-11 -33t-11 -26.5t-9 -17.5t-4.5 -7.5l-119 -198l29 228q-23 -45 -55 -90l-18 -71
q1 -42 13.5 -81.5t36.5 -72t63 -52t88 -19.5h5q75 2 131 48t72 116v0l4 46l-2 -2v0z" />
    <glyph glyph-name="icpublicdown" unicode="&#xe60e;" 
d="M512 128q-19 0 -32 14l-384 427q-12 13 -11 30.5t14.5 29.5t31 11t29.5 -14l352 -392l352 392q12 13 29.5 14t31 -11t14 -29.5t-10.5 -30.5l-384 -427q-13 -14 -32 -14v0z" />
    <glyph glyph-name="icpublicsearch" unicode="&#xe610;" 
d="M68 452q0 102 50.5 188.5t137 137t188.5 50.5t188.5 -50.5t136.5 -137t50 -188.5t-50 -188.5t-136.5 -136.5t-188.5 -50t-188.5 50t-137 136.5t-50.5 188.5zM988 -44l-208 208q107 125 107 288q0 91 -35 173t-94.5 141.5t-141.5 94.5t-172.5 35t-172.5 -35t-141.5 -94.5
t-94.5 -141.5t-35 -172.5t35 -172.5t94.5 -141.5t141.5 -94.5t173 -35q163 0 288 107l208 -208q10 -10 24 -10t24 10t10 24t-10 24v0z" />
    <glyph glyph-name="icsetbeibei" unicode="&#xe611;" 
d="M838 896h-652q-77 0 -131.5 -54.5t-54.5 -131.5v-652q0 -77 54.5 -131.5t131.5 -54.5h652q77 0 131.5 54.5t54.5 131.5v652q0 77 -54.5 131.5t-131.5 54.5v0zM233 291v209v0v1v0q4 80 62.5 135.5t146.5 64.5v1q49 8 69 8q33 0 70 -6q91 -10 150.5 -66t59.5 -137v0v-1v0
v-1v-210q0 -20 -13 -33t-33 -13t-33.5 13t-13.5 33v2v209v0v1q0 43 -33 73.5t-81 36.5q-40 6 -72 6q-26 0 -70 -8v0q-53 -8 -84.5 -38t-31.5 -72v-1v0v-1v-208q0 -20 -13.5 -33t-33.5 -13t-33 13t-13 33v2v0zM768 60v-2q-67 9 -137 48t-122 93q-104 -110 -229 -136
q-11 -5 -22 -5h-2h-2v0v0q-18 2 -30.5 15t-12.5 31q0 17 13.5 30t31.5 15v1q59 11 102 34.5t77 70.5q15 22 22 47q8 33 8 38l-3 129q0 2 1 3v1v1q1 2 1 3q1 1 1 2q6 15 21 23h0.5h0.5q2 1 5 2q0 1 1 1q2 1 4 1h1t1 1h4h2q3 1 5.5 1t5.5 -1h2h4q0 -1 0.5 -1h0.5q2 0 4 -1
q1 0 2 -1q21 -8 28 -29q0 -1 1 -4v-0.5v-0.5l1 -3v-0.5v-1v-2v-1.5v-122q0 -9 7 -35q7 -25 24 -50q10 -15 19 -24.5t31 -29.5t54.5 -33t73.5 -18v-1q18 0 33 -13.5t15 -31.5t-15 -31t-33 -13v0z" />
    <glyph glyph-name="wodeshouhoubeiyong" unicode="&#xe612;" 
d="M512 873q-113 0 -209.5 -54.5t-153 -148.5t-56.5 -204q0 -67 44.5 -160t103 -172.5t126.5 -153.5v1q7 -11 19 -11q10 0 16.5 7t6.5 16q0 11 -10 18v0q-63 70 -118.5 145t-98 162.5t-42.5 147.5q0 98 49.5 181.5t135.5 132t187 48.5t187 -48.5t135.5 -132t49.5 -181.5
q0 -61 -44 -148.5t-106.5 -167.5t-120.5 -143.5t-95 -93.5v0q-10 -7 -10 -18q0 -10 6.5 -16.5t16.5 -6.5q6 0 13 4v0q1 0 2 1t1 2v0q34 27 80.5 74.5t100 113.5t98.5 133.5t75 139.5t30 126q0 110 -56.5 204t-153 148.5t-209.5 54.5zM512 312q-67 0 -115 46t-48 111.5
t48 112t115 46.5t115 -46.5t48 -112t-48 -111.5t-115 -46zM721 470q0 84 -61 143.5t-148 59.5t-148 -59.5t-61 -144t61 -144t148 -59.5t148 59.5t61 144.5v0z" />
    <glyph glyph-name="icquestion" unicode="&#xe613;" 
d="M512 896q-139 0 -257 -68.5t-186.5 -186.5t-68.5 -257t68.5 -257t186.5 -186.5t257 -68.5t257 68.5t186.5 186.5t68.5 257t-68.5 257t-186.5 186.5t-257 68.5v0zM514 59q-21 0 -36 15t-15 36.5t15 36.5t36 15t36 -15t15 -36.5t-15 -36.5t-36 -15v0zM695 467
q-19 -28 -80 -82q-44 -39 -57.5 -66t-13.5 -80h-80q0 60 15.5 97t68.5 84l36 34q17 14 27 30q19 27 19 57q0 41 -27 71.5t-89 30.5q-77 0 -106 -52q-17 -30 -19 -84h-80q0 91 55.5 146.5t152.5 55.5q90 0 144 -47.5t54 -121.5q0 -45 -20 -73v0z" />
    <glyph glyph-name="haitao" unicode="&#xe615;" 
d="M102 896h820v-770l-420 -254l-400 254v770z" />
    <glyph glyph-name="pintuandingwei" unicode="&#xe627;" 
d="M512 364q-61 0 -103.5 44.5t-42.5 107.5t42.5 107.5t103.5 44.5t103.5 -44.5t42.5 -107.5t-42.5 -107.5t-103.5 -44.5zM110 474q0 -68 22 -137.5t57.5 -127t78.5 -111t86 -94t78.5 -70.5t57.5 -46.5t22 -15.5q8 5 22 15t55 43t78.5 68.5t83.5 91t79.5 111.5t57.5 128.5
t26 144.5q3 85 -28.5 163.5t-86 135t-130 90t-157.5 33.5q-109 0 -202 -56.5t-146.5 -153.5t-53.5 -212z" />
    <glyph glyph-name="pintuanjiantou" unicode="&#xe629;" horiz-adv-x="1843" 
d="M991 -99l823 825q29 29 29 70.5t-29 70.5t-70 29t-70 -29l-753 -755l-752 755q-29 29 -70 29t-70 -29t-29 -70.5t29 -70.5l822 -825q29 -29 70 -29t70 29v0z" />
    <glyph glyph-name="pintuanxingxing" unicode="&#xe62a;" 
d="M512 853l-145 -294l-324 -47l234 -228l-55 -323l290 152l290 -152l-55 323l234 228l-324 47zM361 269l8 44l-32 32l-111 108l153 22l45 6l19 41l69 139l69 -139l19 -41l45 -6l153 -22l-111 -108l-32 -32l8 -44l26 -152l-137 72l-40 21l-40 -21l-137 -72z" />
    <glyph glyph-name="pintuanzhuye" unicode="&#xe62b;" 
d="M507 845l479 -503q15 -16 10.5 -26.5t-25.5 -10.5h-112q-7 0 -12 -5t-5 -13v-300q0 -28 -20 -48t-49 -20h-120q-29 0 -49 20t-20 48v189q0 21 -15 36t-36 15h-52q-21 0 -36 -15t-15 -36v-189q0 -28 -20 -48t-48 -20h-121q-28 0 -48 20t-20 48v300q0 8 -5 13t-12 5h-112
q-21 0 -26 10.5t10 26.5zM93 347h63q25 0 42.5 -17.5t17.5 -42.5v-300q0 -11 7 -18.5t18 -7.5h121q10 0 17.5 7.5t7.5 18.5v189q0 39 27.5 66.5t66.5 27.5h52q39 0 66.5 -27.5t27.5 -66.5v-189q0 -11 7.5 -18.5t18.5 -7.5h120q11 0 18.5 7.5t7.5 18.5v300q0 25 17.5 42.5
t42.5 17.5h63l-417 438q-27 -28 -71 -73t-137 -141t-151.5 -160t-52.5 -64z" />
    <glyph glyph-name="quanqiugouyiwen" unicode="&#xe62d;" 
d="M512 -35v0q114 0 210.5 56t152.5 152.5t56 210.5t-56 210.5t-152.5 152.5t-210.5 56t-210.5 -56t-152.5 -152.5t-56 -210.5t56 -210.5t152.5 -152.5t210.5 -56v0zM512 -128v0q-139 0 -257 68.5t-186.5 186.5t-68.5 257t68.5 257t186.5 186.5t257 68.5t257 -68.5
t186.5 -186.5t68.5 -257t-68.5 -257t-186.5 -186.5t-257 -68.5v0zM529 178q-26 0 -43 -17q-18 -16 -18 -42t17.5 -43.5t43.5 -17.5t44 17q18 18 18 44t-17 42q-17 17 -45 17zM544 668q-93 0 -145 -54q-53 -52 -53 -144h88q0 56 23 86q24 36 82 36q46 0 71 -25q24 -26 24 -69
q0 -31 -23 -61l-15 -16q-79 -70 -94 -104q-17 -31 -17 -80v-14h90v14q0 31 13 56q12 24 35 43q59 52 71 66q31 40 31 102q0 76 -50 120q-49 44 -131 44z" />
    <glyph glyph-name="quanqiugougouxuan" unicode="&#xe62e;" 
d="M512 -35v0q114 0 210.5 56t152.5 152.5t56 210.5t-56 210.5t-152.5 152.5t-210.5 56t-210.5 -56t-152.5 -152.5t-56 -210.5t56 -210.5t152.5 -152.5t210.5 -56v0zM512 -128v0q-139 0 -257 68.5t-186.5 186.5t-68.5 257t68.5 257t186.5 186.5t257 68.5t257 -68.5
t186.5 -186.5t68.5 -257t-68.5 -257t-186.5 -186.5t-257 -68.5v0zM749 546l-329 -329h66l-165 164q-13 14 -32.5 14t-33 -13.5t-13.5 -33t14 -33.5l164 -164q14 -14 33 -14t33 14l329 329q14 14 14 33t-14 32.5t-33 13.5t-33 -13v0z" />
    <glyph glyph-name="quanqiugouq" unicode="&#xe630;" 
d="M773 140l-52 -46q-36 51 -59 83q-60 -36 -142 -36q-121 0 -191 79q-66 75 -66 196q0 123 66 198q68 79 191 79q122 0 192 -79q67 -74 67 -198q0 -119 -65 -195q42 -56 59 -81zM512 896q-139 0 -257 -68.5t-186.5 -186.5t-68.5 -257t68.5 -257t186.5 -186.5t257 -68.5
t257 68.5t186.5 186.5t68.5 257t-68.5 257t-186.5 186.5t-257 68.5zM520 622q-85 0 -132 -57q-44 -55 -44 -149q0 -92 44 -147q48 -57 132 -57q56 0 96 24q-39 48 -80 92l47 46q33 -35 80 -90q34 51 34 132q0 95 -46 151q-45 55 -131 55v0z" />
    <glyph glyph-name="shangpinxiangqinga" unicode="&#xe632;" 
d="M512 896q-139 0 -257 -68.5t-186.5 -186.5t-68.5 -257t68.5 -257t186.5 -186.5t257 -68.5t257 68.5t186.5 186.5t68.5 257t-68.5 257t-186.5 186.5t-257 68.5zM709 105l-64 167h-275l-64 -167h-73l235 598h80l235 -598h-74zM507 629l-115 -299h231z" />
    <glyph glyph-name="shangpinxiangqinggou" unicode="&#xe634;" 
d="M512 -35v0q114 0 210.5 56t152.5 152.5t56 210.5t-56 210.5t-152.5 152.5t-210.5 56t-210.5 -56t-152.5 -152.5t-56 -210.5t56 -210.5t152.5 -152.5t210.5 -56v0zM512 -128v0q-139 0 -257 68.5t-186.5 186.5t-68.5 257t68.5 257t186.5 186.5t257 68.5t257 -68.5
t186.5 -186.5t68.5 -257t-68.5 -257t-186.5 -186.5t-257 -68.5v0zM749 546l-329 -329h66l-165 164q-13 14 -32.5 14t-33 -13.5t-13.5 -33t14 -33.5l164 -164q14 -14 33 -14t33 14l329 329q14 14 14 33t-14 32.5t-33 13.5t-33 -13v0z" />
    <glyph glyph-name="shangpinxiangqingjiantouxiangshang" unicode="&#xe637;" 
d="M549 700v-741q0 -15 -11 -26t-26 -11t-26 11t-11 26v741l-269 -269q-10 -10 -24.5 -10t-25 10t-10.5 24.5t11 24.5l322 322q2 6 7 11q10 10 25 10h1h1q15 0 25 -10q5 -5 7 -11l322 -322q11 -10 11 -24.5t-10.5 -24.5t-25 -10t-24.5 10z" />
    <glyph glyph-name="wodebeibeiwodeshouhou" unicode="&#xe638;" 
d="M363 480q0 22 -16 37.5t-38 15.5t-37.5 -15.5t-15.5 -37.5t15.5 -37.5t37.5 -15.5t38 15.5t16 37.5zM715 427q22 0 37.5 15.5t15.5 37.5t-15.5 37.5t-37.5 15.5t-38 -15.5t-16 -37.5t16 -37.5t38 -15.5zM798 700l-21 -38q56 -54 87.5 -126t31.5 -152q0 -104 -51.5 -192.5
t-140 -140t-192.5 -51.5t-192.5 51.5t-140 140t-51.5 192.5t51.5 192.5t140 140t192.5 51.5q71 0 138 -26l22 37q-77 32 -160 32q-116 0 -214 -57.5t-155.5 -155.5t-57.5 -214t57.5 -214t155.5 -155.5t214 -57.5t214 57.5t155.5 155.5t57.5 214q0 92 -37.5 174t-103.5 142z
M512 129q65 0 117.5 35t77.5 92h-3q0 9 -6 15.5t-15 6.5t-15.5 -6.5t-6.5 -15.5h-1q-23 -38 -62 -61.5t-86 -23.5t-86 23.5t-62 61.5h-1q0 9 -6.5 15.5t-15.5 6.5t-15 -6.5t-6 -15.5h-3q25 -57 77.5 -92t117.5 -35v0z" />
    <glyph glyph-name="wodebeibeidaishouhuo" unicode="&#xe639;" 
d="M853 747h-533q-18 0 -30.5 -12.5t-12.5 -30.5v-119l-169 -170l1 -1q-2 -4 -2 -9v-277q0 -9 6 -15t15 -6t15 6t6 15v269l158 158h13v128q0 8 6.5 14.5t14.5 6.5h491q9 0 15 -6.5t6 -14.5v-512h43v533q0 18 -12.5 30.5t-30.5 12.5v0zM384 299q9 0 15 6t6 15v107
q0 8 -6 14.5t-15 6.5t-15 -6.5t-6 -14.5v-86h-107q-9 0 -15 -6t-6 -15t6 -15t15 -6h128zM725 64q-26 0 -45 18.5t-19 45.5t19 45.5t45.5 18.5t45 -18.5t18.5 -45.5t-18.5 -45.5t-45.5 -18.5v0zM299 64q-27 0 -45.5 18.5t-18.5 45.5t18.5 45.5t45 18.5t45.5 -18.5t19 -45.5
t-19 -45.5t-45 -18.5v0zM725 235q-38 0 -67.5 -24.5t-36.5 -61.5h-218q-7 37 -36.5 61.5t-67.5 24.5q-45 0 -76 -31.5t-31 -75.5t31 -75.5t76 -31.5q38 0 67.5 24.5t36.5 61.5h218q7 -37 36.5 -61.5t67.5 -24.5q45 0 76 31.5t31 75.5t-31 75.5t-76 31.5v0z" />
    <glyph glyph-name="wodebeibeidaipingjia" unicode="&#xe63a;" 
d="M876 509q21 -61 21 -126q0 -104 -51.5 -192.5t-140 -140t-193 -51.5t-193 51.5t-140 140t-51.5 193t51.5 193t140 140t193.5 51.5q122 0 221 -70l25 35q-111 78 -246 78q-117 0 -215 -57.5t-155.5 -155.5t-57.5 -214.5t57.5 -214.5t155.5 -155.5t214.5 -57.5t214.5 57.5
t155.5 155.5t57.5 214q0 72 -23 139l-41 -13v0zM683 286h-342q-9 0 -15 -6t-6 -15v0q0 -9 6 -15.5t15 -6.5h342q9 0 15 6.5t6 15.5v0q0 9 -6 15t-15 6zM875 719l-241 -241q-7 -7 -7 -15.5t7 -15.5v0q6 -6 15 -6t15 6l241 242q7 6 7 14.5t-7 15.5v0q-6 6 -15 6t-15 -6z
M341 371h192q9 0 15.5 6.5t6.5 15.5v0q0 9 -6.5 15t-15.5 6h-192q-8 0 -14.5 -6t-6.5 -15v0q0 -9 6.5 -15.5t14.5 -6.5zM341 499h192q9 0 15.5 6.5t6.5 15.5v0q0 9 -6.5 15t-15.5 6h-192q-8 0 -14.5 -6t-6.5 -15v0q0 -9 6.5 -15.5t14.5 -6.5v0z" />
    <glyph glyph-name="wodebeibeidaifukuan" unicode="&#xe63b;" 
d="M853 533v-362q0 -47 -29.5 -77t-76.5 -30h-470q-47 0 -76.5 30t-29.5 77v362q0 9 -6.5 15.5t-15.5 6.5t-15 -6.5t-6 -15.5v-362q0 -65 42.5 -107.5t106.5 -42.5h470q64 0 106.5 42.5t42.5 107.5v362h-43zM256 576q-36 0 -60.5 19t-24.5 45t24.5 45t60.5 19h363v-64h42v85
v22h-21h-384q-53 0 -90.5 -31t-37.5 -76t37.5 -76t90.5 -31h640v43h-640zM811 256h-136q-24 0 -40 12.5t-16 30t16 30t40 12.5h136v43h-136q-41 0 -70 -25t-29 -60.5t29 -60.5t70 -25h136v43v0z" />
    <glyph glyph-name="wodebeibeiquanbudingdan" unicode="&#xe63c;" 
d="M0 710q0 77 54.5 131.5t131.5 54.5h652q77 0 131.5 -54.5t54.5 -131.5v-652q0 -77 -54.5 -131.5t-131.5 -54.5h-652q-77 0 -131.5 54.5t-54.5 131.5v652zM675 663h-349q-39 0 -66 -27t-27 -66v-395q0 -39 27 -66.5t66 -27.5h349q38 0 65.5 27.5t27.5 66.5v395
q0 39 -27.5 66t-65.5 27zM344 547h38q37 0 37 -47q0 -7 -10.5 -15t-26.5 -8h-38q-4 0 -11 9t-7 14q0 15 3.5 26t7.5 16t7 5zM653 198h-305q-6 0 -14 8.5t-8 14.5q0 21 7 34t15 13h305q7 0 14.5 -13t7.5 -34q0 -6 -8 -14.5t-14 -8.5zM653 337h-305q-8 0 -15 13t-7 34
q0 6 8 14.5t14 8.5h305q6 0 14 -8.5t8 -14.5q0 -21 -7.5 -34t-14.5 -13zM652 477h-163q-7 0 -15.5 8.5t-8.5 14.5q0 22 7.5 34.5t16.5 12.5h163q8 0 15.5 -12.5t7.5 -34.5q0 -6 -8.5 -14.5t-14.5 -8.5z" />
    <glyph glyph-name="wodebeibeilianxikefu" unicode="&#xe63d;" 
d="M0 710q0 77 54.5 131.5t131.5 54.5h652q77 0 131.5 -54.5t54.5 -131.5v-652q0 -77 -54.5 -131.5t-131.5 -54.5h-652q-77 0 -131.5 54.5t-54.5 131.5v652zM736 586q-39 11 -79 3q43 -26 68 -79.5t25 -121.5q0 -72 -29 -128q12 3 24 8l50 -22q10 50 10 51q36 32 50 79
q19 68 -15.5 129.5t-103.5 80.5zM437 640q-118 0 -196 -79t-78 -197q0 -112 45 -143q0 -1 -7 -22l-14 -42l-7 -21l88 18q66 -49 172 -49q118 0 188 70.5t70 187.5q0 120 -72 198.5t-189 78.5zM429 217q-27 0 -49.5 5t-39.5 15.5t-25.5 17.5t-20.5 20t-12 14q-11 9 3 18
q15 11 33 -5q0 -2 4 -7t13.5 -13.5t21.5 -16t31 -13t40 -5.5q33 0 61 12t40 24l11 12q13 14 28 14q7 0 11 -3.5t5 -6.5l1 -3q-2 -3 -5.5 -8.5t-16 -19t-29 -24t-44.5 -19t-61 -8.5zM524 477q17 0 26 -10.5t8 -26.5q-1 -33 -33 -32q-18 1 -27.5 10t-9.5 22q0 37 36 37z
M338 478q34 -1 34 -37q0 -16 -9.5 -25t-25 -9t-25.5 10t-10 25q0 16 10 26t26 10z" />
    <glyph glyph-name="wodebeibeishouhuodizhi" unicode="&#xe63e;" 
d="M0 710q0 77 54.5 131.5t131.5 54.5h652q77 0 131.5 -54.5t54.5 -131.5v-652q0 -77 -54.5 -131.5t-131.5 -54.5h-652q-77 0 -131.5 54.5t-54.5 131.5v652zM512 687q-106 0 -181 -76t-75 -183q0 -42 14.5 -83.5t36 -74t51 -64t53.5 -52.5t50.5 -39.5t36 -24.5t14.5 -9v0
q5 3 14 8.5t35 23t50 37.5t53 51t50.5 64t37 76t16.5 87q3 106 -73 182.5t-183 76.5zM512 361q-39 0 -66 27t-27 65.5t27 66t66 27.5t66 -27.5t27 -66t-27 -65.5t-66 -27z" />
    <glyph glyph-name="wodebeibeiwodeshoucang" unicode="&#xe640;" 
d="M811 439q-2 -3 -25 -28t-53 -60t-49 -60q1 -34 6.5 -78.5t10.5 -76t5 -34.5q0 -9 -8 -15.5t-17 -3.5q-3 1 -32 16.5t-68.5 34.5t-68.5 30q-30 -11 -70 -30.5t-68.5 -34.5t-30.5 -16q-9 -3 -17.5 3.5t-7.5 15.5q0 4 5 36t10.5 76t6.5 76q-20 27 -50.5 62t-53 60t-23.5 27
q-6 8 -2.5 18t12.5 13q3 1 32.5 6t69.5 13t70 17q18 27 42 68.5t41 71.5t18 32q6 9 16 9t15 -9q2 -3 19.5 -33.5t41 -71t40.5 -67.5q31 -9 72 -17.5t70 -13t31 -5.5q9 -3 12.5 -13t-2.5 -18zM838 896h-652q-77 0 -131.5 -54.5t-54.5 -131.5v-652q0 -77 54.5 -131.5
t131.5 -54.5h652q77 0 131.5 54.5t54.5 131.5v652q0 77 -54.5 131.5t-131.5 54.5v0z" />
    <glyph glyph-name="0yuanshiyongn" unicode="&#xe641;" 
d="M995 446q-6 7 -69 72q-8 7 -65 65t-71 73l-1 1q-191 194 -202 208l-2 2q-30 26 -62.5 26t-60.5 -27q-70 -67 -244 -236t-188 -183l33 -32q14 14 188.5 183t242.5 235q29 27 59 -1l-2 2q13 -14 205 -210l1 -1q14 -14 71 -72t64 -66q63 -64 69 -70l34 31v0zM793 81v-3
q0 -19 -12 -31t-33 -12h-472q-21 0 -33 12t-12 31v3l-45 398l-46 -4l45 -399v3q-2 -38 24.5 -64.5t66.5 -26.5h472q40 0 66.5 26.5t24.5 64.5v-3l45 399l-46 4zM489 314v0q-10 0 -17 -6.5t-7 -16.5v-163v0h94v0v163q0 10 -7 16.5t-17 6.5h-46zM489 361h46q29 0 49.5 -20.5
t20.5 -49.5v-163q0 -19 -13.5 -33t-32.5 -14h-94q-19 0 -32.5 14t-13.5 33v163q0 29 20.5 49.5t49.5 20.5v0z" />
    <glyph glyph-name="0yuanshiyongh" unicode="&#xe642;" 
d="M474 834q-12 -12 -155.5 -172.5t-155.5 -172.5v-12l61 -446q0 -27 20 -46.5t49 -19.5h454q29 0 49 19.5t20 46.5l45 464q-7 8 -142 165t-153 174q-15 16 -45.5 15.5t-46.5 -15.5zM489 268v0q-10 0 -17 -7t-7 -17v-163v0h94v0v163q0 10 -7 17t-17 7h-46zM995 400
q-6 6 -69 71q-8 8 -65 66t-71 72l-1 1q-191 195 -202 208l-2 2q-30 27 -62.5 26.5t-60.5 -26.5q-70 -67 -244 -236t-188 -184l33 -32q14 14 188.5 183.5t242.5 234.5q29 27 59 0l-2 2q13 -15 205 -211h1q14 -15 70.5 -73t64.5 -66q63 -64 69 -70l34 32v0zM838 479l-45 -445
v-3q0 -18 -12 -30.5t-33 -12.5h-472q-21 0 -33 12.5t-12 30.5v3l-45 445l-46 -4l45 -445v3q-2 -39 24.5 -65t66.5 -26h472q40 0 66.5 26t24.5 65v-3l45 445l-46 4v0z" />
    <glyph glyph-name="0yuanshiyongwodeshiyongh" unicode="&#xe643;" 
d="M576 752q122 -19 214.5 -101.5t124.5 -201.5q48 -11 78.5 -41.5t30.5 -70t-30.5 -70t-78.5 -41.5q-37 -135 -148.5 -221t-254.5 -86t-254.5 86t-148.5 221q-48 11 -78.5 41.5t-30.5 70t30.5 70t78.5 41.5q34 125 134.5 209.5t231.5 96.5q-12 26 -35 45q-16 13 -35 22
q-9 4 -15 5l11 45q35 -8 69 -36q38 -32 54 -78q39 70 105 68l-1 -46q-30 0 -52 -28zM605 198q0 -27 -28.5 -48.5t-66.5 -21.5q-49 0 -81.5 20.5t-32.5 49.5h-47q0 -50 46.5 -83.5t114.5 -33.5q57 0 99.5 34.5t42.5 82.5h-47z" />
    <glyph glyph-name="0yuanshiyongwodeshiyongn" unicode="&#xe644;" 
d="M905 272l-27 -6l-7 -27q-34 -121 -133.5 -197t-225.5 -76t-225.5 76t-133.5 197l-7 27l-27 6q-33 7 -52.5 26t-19.5 40t19.5 40t52.5 26l27 6l7 27q32 115 124.5 190t211.5 82q4 -30 0 -66v0v0l23 -2l23 -3v0v0q1 9 4 24q5 23 14 46q113 -12 200 -86.5t118 -184.5l7 -27
l27 -6q33 -7 52.5 -26t19.5 -40t-19.5 -40t-52.5 -26zM915 450q-32 118 -124.5 200.5t-214.5 101.5q22 29 52 28l1 47q-66 1 -105 -69q-17 47 -54 78q-34 29 -69 37l-11 -46q6 -1 15 -5q19 -8 35 -21q23 -19 35 -46q-131 -11 -231.5 -95.5t-134.5 -209.5q-48 -11 -78.5 -42
t-30.5 -70t30.5 -70t78.5 -42q37 -134 148.5 -220.5t254.5 -86.5t254.5 86.5t148.5 220.5q48 11 78.5 42t30.5 70t-30.5 70t-78.5 42zM608 202q0 -29 -29 -51t-67 -22q-50 0 -83 21.5t-33 51.5h-47q0 -52 47 -86t116 -34q57 0 100 35.5t43 84.5h-47z" />
    <glyph glyph-name="iconbeibei" unicode="&#xe604;" 
d="M0 54q0 -75 53.5 -128.5t128.5 -53.5h660q75 0 128.5 53.5t53.5 128.5v660q0 75 -53.5 128.5t-128.5 53.5h-660q-75 0 -128.5 -53.5t-53.5 -128.5v-660zM754 76q-20 0 -31.5 12.5t-11.5 31.5t12 31.5t31 12.5t31 -13t12 -31q0 -19 -12.5 -31.5t-30.5 -12.5zM572 242
q-14 -1 -23.5 8t-10.5 22t7.5 23t22.5 11q54 5 92 44q44 44 44 106v64q0 13 9.5 22.5t22.5 9.5t22.5 -9.5t9.5 -22.5v-64q0 -62 44 -106q39 -39 93 -44q13 -1 22 -11t8 -23t-11 -22t-23 -8q-50 5 -92.5 30.5t-69.5 66.5q-1 2 -3 2t-3 -2q-27 -41 -69 -66.5t-92 -30.5z
M936 87q0 -5 -3 -8t-7.5 -3t-7.5 3t-3 8v46q0 15 -14 14q-16 -3 -16 -24v-36q0 -5 -3 -8t-7.5 -3t-7.5 3t-3 8v46q0 15 -14 14q-16 -3 -16 -24v-36q0 -5 -3 -8t-7.5 -3t-7.5 3t-3 8v66q0 5 3 8t7.5 3t7.5 -3t3 -8v-2q9 12 24 12q20 0 25 -15q9 15 26 15q12 0 19.5 -6.5
t7.5 -17.5v-52zM659 76q-20 0 -31 12.5t-11 31.5t11 31.5t31 12.5q27 0 37 -21q4 -9 -4.5 -13t-12.5 5q-6 12 -21 12q-8 0 -14 -7.5t-6 -20.5q0 -12 6 -19.5t14 -7.5q16 0 22 14q3 9 12 5.5t5 -12.5q-9 -23 -38 -23zM584.5 76q-4.5 0 -8 3.5t-3.5 8.5t3.5 8.5t8 3.5t8 -3.5
t3.5 -8.5t-3.5 -8.5t-8 -3.5zM537.5 174q-4.5 0 -7.5 3t-3 7.5t3 7.5t7.5 3t7.5 -3t3 -7.5t-3 -7.5t-7.5 -3zM548 87q0 -5 -3 -8t-7.5 -3t-7.5 3t-3 8v66q0 5 3 8t7.5 3t7.5 -3t3 -8v-66zM468 90v0q14 0 23 10q5 6 9 6q7 0 7 -6q0 -2 -1 -3q-8 -21 -37 -21q-20 0 -31 12.5
t-11 31.5t11 31.5t31 12.5q21 0 34 -19q5 -9 5 -19q0 -5 -3 -8.5t-8 -3.5h-49q1 -10 6.5 -17t13.5 -7zM377 76q-17 0 -28 15v-4q0 -5 -3 -8t-7.5 -3t-7.5 3t-3 8v98q0 4 3 7t7.5 3t7.5 -3t3 -7v-36q11 15 28 15q16 0 26.5 -13t10.5 -31q0 -19 -10.5 -31.5t-26.5 -12.5z
M291 339q-1 2 -3 2t-3 -2q-27 -41 -69.5 -66.5t-92.5 -30.5q-13 -1 -23 8t-11 22t8 23t22 11q54 5 93 44q44 44 44 106v64q0 13 9 22.5t22.5 9.5t23 -9.5t9.5 -22.5v-64q0 -62 44 -106q38 -39 92 -44q14 -1 22.5 -11t7.5 -23t-10.5 -22t-23.5 -8q-50 5 -92 30.5t-69 66.5z
M297.5 174q-4.5 0 -7.5 3t-3 7.5t3 7.5t7.5 3t7.5 -3t3 -7.5t-3 -7.5t-7.5 -3zM308 87q0 -5 -3 -8t-7.5 -3t-7.5 3t-3 8v66q0 5 3 8t7.5 3t7.5 -3t3 -8v-66zM228 90q14 0 23 10q5 6 9 6q7 0 7 -6q0 -2 -1 -3q-8 -21 -37 -21q-20 0 -31 12.5t-11 31.5t11 31.5t31 12.5
q21 0 34 -19q5 -9 5 -19q0 -5 -3 -8.5t-8 -3.5h-49q1 -10 6.5 -17t13.5 -7zM137 76q-17 0 -28 15v-4q0 -5 -3 -8t-7.5 -3t-7.5 3t-3 8v98q0 4 3 7t7.5 3t7.5 -3t3 -7v-36q11 15 28 15q16 0 26.5 -13t10.5 -31q0 -19 -10.5 -31.5t-26.5 -12.5zM287.5 691q75.5 0 129 -41.5
t53.5 -100.5v-149q0 -13 -9 -22.5t-22.5 -9.5t-22.5 9.5t-9 22.5v149q0 32 -35 55t-84.5 23t-84 -23t-34.5 -55v0v-149q0 -13 -9.5 -22.5t-22.5 -9.5t-22.5 9.5t-9.5 22.5v149v0q0 59 53.5 100.5t129 41.5zM736.5 691q75.5 0 129 -41.5t53.5 -100.5v-149q0 -13 -9.5 -22.5
t-22.5 -9.5t-22.5 9.5t-9.5 22.5v149q0 32 -34.5 55t-84 23t-84.5 -23t-35 -55v0v-149q0 -13 -9 -22.5t-22.5 -9.5t-22.5 9.5t-9 22.5v149v0q0 59 53.5 100.5t129 41.5zM754 147q-9 0 -15 -7.5t-6 -19.5q0 -13 5.5 -20.5t15.5 -7.5t16 8t6 19.5t-6 19.5t-16 8zM371 147
q-9 0 -15 -8t-6 -19q0 -12 6 -20t15 -8q10 0 15.5 8t5.5 19.5t-5.5 19.5t-15.5 8zM228 149q-17 0 -20 -22h40q-3 22 -20 22zM468 149q-17 0 -20 -22h40q-3 22 -20 22zM131 147q-9 0 -15 -8t-6 -19q0 -12 6 -20t15 -8q10 0 15.5 8t5.5 19.5t-5.5 19.5t-15.5 8z" />
    <glyph glyph-name="0yuanshiyongfenxiang" unicode="&#xe618;" 
d="M832 -51q-37 0 -63.5 26t-26.5 63t26.5 63.5t63.5 26.5t63.5 -26.5t26.5 -63.5t-26.5 -63t-63.5 -26zM218 282q-37 0 -63.5 26t-26.5 63t26.5 63.5t63.5 26.5t63 -26.5t26 -63.5t-26 -63t-63 -26zM806 819q37 0 63.5 -26t26.5 -63t-26.5 -63.5t-63.5 -26.5t-63 26.5
t-26 63.5t26 63t63 26zM832 179q-42 0 -76 -22t-51 -59l-354 228q7 22 7 45t-7 45l347 224q42 -51 108 -51q59 0 100 41t41 99.5t-41 99.5t-99.5 41t-99.5 -41t-41 -99q0 -23 7 -46l-347 -223q-42 51 -108 51q-59 0 -100 -41t-41 -99.5t41 -100t100 -41.5q66 0 108 51
l366 -235l-0.5 -3t-0.5 -5q0 -58 41.5 -99t99.5 -41t99.5 41t41.5 99.5t-41.5 99.5t-99.5 41v0z" />
    <glyph glyph-name="0yuanshiyongdianpu" unicode="&#xe619;" 
d="M870.5 282q-10.5 0 -18 -7.5t-7.5 -18.5v-205q0 -21 -15 -36t-36 -15h-564q-21 0 -36 15t-15 36v205q0 11 -7.5 18.5t-18 7.5t-18 -7.5t-7.5 -18.5v-205q0 -42 30 -72t72 -30h564q42 0 72 30t30 72v205q0 11 -7.5 18.5t-18 7.5zM726 477h51q0 -28 24.5 -47.5t58.5 -19.5
q59 0 62 62l-108 270h-604l-108 -270q3 -62 62 -62q34 0 58.5 19.5t24.5 47.5h51q0 -25 33.5 -46t71.5 -21q35 0 59 19.5t24 47.5h52q0 -28 24 -47.5t59 -19.5q38 0 71.5 21t33.5 46zM860 358q-34 0 -63.5 14.5t-48.5 38.5q-22 -24 -57 -38.5t-70 -14.5q-69 0 -109 49
q-40 -49 -109 -49q-35 0 -70 14.5t-57 38.5q-19 -24 -48.5 -38.5t-63.5 -14.5q-51 0 -82 32.5t-31 86.5v5l124 312h673l125 -312v-5q0 -54 -31 -86.5t-82 -32.5v0z" />
    <glyph glyph-name="pinpaituanshoucang" unicode="&#xe61d;" 
d="M524 803l84 -178q17 -37 56.5 -66.5t80.5 -35.5l181 -28q19 -2 21 -8.5t-11 -19.5l-134 -137q-29 -29 -43.5 -76t-8.5 -87l32 -197q3 -18 -1 -21t-20 6l-164 90q-36 20 -85.5 20t-84.5 -20l-164 -90q-16 -9 -20.5 -6t-1.5 21l32 197q7 40 -8 87t-43 76l-134 137
q-13 13 -11 19.5t20 8.5l182 28q40 6 79.5 35.5t56.5 66.5l85 178q7 16 11.5 16.5t12.5 -16.5zM369 647q-12 -25 -41 -47t-57 -26l-182 -28q-49 -7 -61 -43t23 -72l134 -137q20 -20 31 -55.5t7 -63.5l-33 -197q-8 -50 22.5 -71.5t74.5 3.5l164 90q25 13 61 13t60 -13
l164 -90q44 -24 74.5 -3t22.5 71l-32 197q-5 28 6.5 63.5t30.5 55.5l134 137q35 36 23 72t-61 43l-182 28q-27 4 -56.5 26t-41.5 47l-84 178q-21 46 -58 46t-59 -46z" />
    <glyph glyph-name="quxiaoshoucang" unicode="&#xe620;" 
d="M521 728l-9 -11l-8 8q-82 81 -187 81q-115 0 -196 -80t-81 -193.5t81 -193.5l333 -353q24 -24 58 -24t58 23l334 355q80 79 80 192.5t-81 193.5t-196 80q-107 0 -186 -78zM867 690q66 -65 66 -157t-66 -157l-334 -355q-8 -8 -21 -8t-22 9l-332 353q-67 66 -67 158t66 157
t160 65q84 0 150 -65l26 -30l20 -24l19 25q3 4 13 16q11 13 12 15q64 63 150 63q94 0 160 -65z" />
    <glyph glyph-name="shoucangchenggong" unicode="&#xe628;" 
d="M521 728l-9 -11l-8 8q-82 81 -187 81q-115 0 -196 -80t-81 -193.5t81 -193.5l333 -353q24 -24 58 -24t58 23l334 355q80 79 80 192.5t-81 193.5t-196 80q-107 0 -186 -78z" />
    <glyph glyph-name="pinpaituanshoucangchenggong" unicode="&#xe631;" 
d="M369 646q-11 -25 -40.5 -46.5t-57.5 -26.5l-181 -27q-50 -8 -62 -44t23 -71l134 -137q20 -20 31.5 -55.5t6.5 -63.5l-32 -197q-8 -50 22.5 -71.5t74.5 2.5l164 91q24 13 60 13t60 -13l164 -91q44 -24 74.5 -2.5t22.5 71.5l-32 197q-5 28 6.5 63.5t30.5 55.5l135 137
q35 35 23 71t-62 44l-181 27q-28 5 -57.5 26.5t-40.5 46.5l-85 179q-21 45 -58 45t-58 -45z" />
    <glyph glyph-name="pinpaituanxiangxiafanye" unicode="&#xe633;" 
d="M512 207l-424 424q-15 15 -36.5 15t-36.5 -15t-14.5 -36t15.5 -37l447 -447q21 -21 49 -13q28 -8 49 13l447 447q15 16 15.5 37t-14.5 36t-36.5 15t-36.5 -15z" />
    <glyph glyph-name="kefudianhua" unicode="&#xe635;" 
d="M784 99q-19 -34 -45 -55.5t-50 -27.5t-45.5 -7t-34.5 2l-13 3q-72 47 -130.5 108t-95 118.5t-63 121.5t-39 111.5t-20 93.5t-8.5 62.5t-1 23.5l7 61l7 15q16 16 46.5 30.5t51.5 20.5l22 7q24 9 38 5.5t19 -13.5l5 -9l42 -215q-4 -14 -23.5 -25.5t-37.5 -16.5l-18 -5
q-11 -1 -16 -7.5t-4 -11.5l1 -5q13 -50 43 -103.5t54 -82.5l23 -28q15 -19 31 -21.5t24 4.5l9 7q16 17 33.5 21t27.5 -1l9 -5l159 -144zM512 896q-104 0 -199 -40.5t-163.5 -109t-109 -163.5t-40.5 -199t40.5 -199t109 -163.5t163.5 -109t199 -40.5t199 40.5t163.5 109
t109 163.5t40.5 199t-40.5 199t-109 163.5t-163.5 109t-199 40.5v0z" />
    <glyph glyph-name="pinpaituanshangxiaye" unicode="&#xe636;" 
d="M512 896l-341 -341h682zM171 213l341 -341l341 341h-682z" />
    <glyph glyph-name="iconlogincode" unicode="&#xe646;" 
d="M931 -12q0 -29 -20.5 -49t-49.5 -20h-698q-29 0 -49.5 20t-20.5 49v466q0 29 20.5 49.5t49.5 20.5h698q29 0 49.5 -20.5t20.5 -49.5v-466zM512 849q116 0 197.5 -81.5t81.5 -197.5h-558q0 116 81.5 197.5t197.5 81.5v0zM884 570h-46q0 89 -43.5 164t-118.5 118.5
t-164 43.5t-164 -43.5t-118.5 -118.5t-43.5 -164h-46q-39 0 -66 -27t-27 -66v-512q0 -38 27 -65.5t66 -27.5h744q39 0 66 27.5t27 65.5v512q0 39 -27 66t-66 27v0zM512 337q-29 0 -49.5 -20t-20.5 -49q0 -23 13.5 -41t34.5 -25l-0.5 -1.5t-0.5 -2.5v-70q0 -10 6.5 -16.5
t16.5 -6.5t16.5 6.5t6.5 16.5v70q0 1 -0.5 2.5l-0.5 1.5q21 7 34.5 25t13.5 41q0 29 -20.5 49t-49.5 20v0z" />
    <glyph glyph-name="iconloginaccount" unicode="&#xe647;" 
d="M999 -72q3 23 1 41q-19 129 -91 232t-181 157q87 88 87 212q0 126 -89 214.5t-214 88.5t-213.5 -88.5t-88.5 -214.5q0 -123 87 -212q-109 -53 -181 -155t-91 -230q-3 -20 0 -47q-1 -4 -1 -7q0 -10 6.5 -17t16 -7t16.5 7t7 17h1q7 153 94.5 269.5t226.5 155.5
q-62 33 -99 93.5t-37 132.5q0 106 75 181t181 75t181 -75t75 -181q0 -72 -37 -132.5t-99 -93.5q139 -39 226.5 -155.5t94.5 -269.5h1q0 -10 7 -17t16.5 -7t16.5 7t7 17q0 4 -2 9v0z" />
    <glyph glyph-name="iconloginphone" unicode="&#xe648;" 
d="M512 151q29 0 49.5 -20.5t20.5 -49t-20.5 -49t-49.5 -20.5t-49.5 20.5t-20.5 49t20.5 49t49.5 20.5zM838 244h-652v512q0 20 13.5 33.5t33.5 13.5h558q20 0 33.5 -13.5t13.5 -33.5v-512zM838 12q0 -20 -13.5 -33.5t-33.5 -13.5h-558q-20 0 -33.5 13.5t-13.5 33.5v186h652
v-186zM791 849h-558q-39 0 -66 -27t-27 -66v-744q0 -39 27 -66t66 -27h558q39 0 66 27t27 66v744q0 39 -27 66t-66 27v0z" />
    <glyph glyph-name="iconloginphonecode" unicode="&#xe649;" 
d="M407 206l-165 165l-33 -33l181 -181l17 -16l395 395l-33 33zM93 756v0v-744q0 -20 13.5 -33.5t33.5 -13.5h744q20 0 33.5 13.5t13.5 33.5v744q0 20 -13.5 33.5t-33.5 13.5h-744q-20 0 -33.5 -13.5t-13.5 -33.5v0zM47 756q0 39 27 66t66 27h744q39 0 66 -27t27 -66v-744
q0 -39 -27 -66t-66 -27h-744q-39 0 -66 27t-27 66v744v0z" />
    <glyph glyph-name="iclogindel" unicode="&#xe64a;" 
d="M660 236q-9 -9 -21.5 -9t-20.5 9l-106 106l-106 -106q-8 -9 -20.5 -9t-21.5 9t-9 21.5t9 20.5l106 106l-106 106q-9 8 -9 20.5t9 21.5t21.5 9t20.5 -9l106 -106l106 106q8 9 20.5 9t21.5 -9t9 -21.5t-9 -20.5l-106 -106l106 -106q9 -8 9 -20.5t-9 -21.5zM512 803
q-114 0 -210.5 -56t-152.5 -152.5t-56 -210.5t56 -210.5t152.5 -152.5t210.5 -56t210.5 56t152.5 152.5t56 210.5t-56 210.5t-152.5 152.5t-210.5 56v0z" />
    <glyph glyph-name="del" unicode="&#xe64b;" 
d="M579 384l163 163q11 11 11 27t-11 27.5t-27 11t-27 -11.5l-163 -163l-163 163q-11 12 -27 11.5t-27.5 -11.5t-11.5 -27t12 -27l162 -163l-162 -163q-12 -11 -12 -27t11.5 -27.5t27.5 -11t27 11.5l163 163l163 -163q11 -12 27 -11.5t27 11.5t11 27t-11 27zM0 384
q0 139 68.5 257t186.5 186.5t257 68.5t257 -68.5t186.5 -186.5t68.5 -257t-68.5 -257t-186.5 -186.5t-257 -68.5t-257 68.5t-186.5 186.5t-68.5 257zM973 384q0 94 -36.5 179t-98.5 147t-147 98.5t-179 36.5t-179 -36.5t-147 -98.5t-98.5 -147t-36.5 -179t36.5 -179
t98.5 -147t147 -98.5t179 -36.5t179 36.5t147 98.5t98.5 147t36.5 179z" />
    <glyph glyph-name="icsearchbarsearch" unicode="&#xe64e;" 
d="M680 216q47 47 71.5 108.5t24.5 123.5t-24.5 123.5t-71.5 108.5t-108.5 71.5t-123.5 24.5t-123.5 -24.5t-108.5 -71.5t-71.5 -108.5t-24.5 -123.5t24.5 -123.5t71.5 -108.5t108.5 -71.5t123.5 -24.5t123.5 24.5t108.5 71.5v0zM696 155q-75 -63 -169 -83t-187.5 7
t-163.5 97q-55 56 -83.5 127.5t-28.5 144.5t28.5 144.5t83.5 127.5q74 73 173 99.5t198 0t173 -99.5q69 -70 96.5 -163.5t7.5 -187.5t-83 -169l250 -250q9 -9 9 -22.5t-9 -22.5t-22.5 -9t-22.5 9z" />
    <glyph glyph-name="ictoolbararrow1" unicode="&#xe64c;" 
d="M782 150q19 -19 47 -19t47 20q20 19 20 46.5t-19 46.5l-318 313q-19 19 -47 19t-47 -19l-318 -313q-19 -19 -19 -46.5t20 -46.5q19 -20 47 -20t47 19l270 267z" />
    <glyph glyph-name="ictoolbararrow2" unicode="&#xe64d;" 
d="M782 621q19 19 47 19t47 -20q20 -19 20 -46t-19 -47l-318 -313q-19 -19 -47 -19t-47 19l-318 313q-19 19 -19 46.5t20 46.5q19 20 47 20t47 -19l270 -266z" />
    <glyph glyph-name="ictoolbarfilter" unicode="&#xe64f;" 
d="M469 441v14l-9 12l-204 258l510 1l-203 -259l-8 -11v-15v-347q0 -18 12.5 -30.5t30 -12.5t30 12.5t12.5 30.5v333l233 298q22 28 8 57t-50 29l-640 -1q-36 0 -50 -29t8 -57l235 -297v-427q0 -18 12.5 -30.5t30 -12.5t30 12.5t12.5 30.5v441z" />
    <glyph glyph-name="icbottombarsalen" unicode="&#xe650;" 
d="M469 830q-72 0 -122 -49l-158 -152q-25 -24 -43 -66.5t-18 -78.5v-445q0 -53 37.5 -90.5t90.5 -37.5h427q53 0 90.5 37.5t37.5 90.5v445q0 36 -18 78.5t-44 66.5l-157 152q-51 49 -123 49zM469 787v0q55 0 93 -37l158 -151q19 -19 33.5 -53.5t14.5 -61.5v-445
q0 -35 -25 -60t-60 -25h-427q-35 0 -60 25t-25 60v445q0 27 14.5 61.5t33.5 53.5l157 151q39 37 93 37zM853 -22q-7 0 -13 4q-7 5 -8.5 14t3.5 16q18 24 18 56v443q0 32 -15.5 71t-37.5 61l-175 174q-6 6 -6 15t6 15t15 6t15 -6l175 -174q28 -28 47 -74.5t19 -87.5v-443
q0 -46 -26 -81q-7 -9 -17 -9zM469.5 679q-44.5 0 -75.5 -31t-31 -75.5t31 -75.5t75.5 -31t75.5 31t31 75.5t-31 75.5t-75.5 31zM469 636q27 0 45.5 -18.5t18.5 -45t-18.5 -45.5t-45 -19t-45.5 19t-19 45.5t19 45t45 18.5v0z" />
    <glyph glyph-name="icbottombarsaleh" unicode="&#xe651;" 
d="M811 42q0 -52 -37.5 -89.5t-90.5 -37.5h-427q-53 0 -90.5 37.5t-37.5 89.5v446q0 36 18 78t43 67l158 152q50 49 122 49t123 -49l157 -152q26 -25 44 -67t18 -78v-446zM469.5 492q35.5 0 60.5 25t25 60.5t-25 60.5t-60.5 25t-60.5 -25t-25 -60.5t25 -60.5t60.5 -25z
M853 -22q-7 0 -13 4q-7 5 -8.5 14t3.5 16q18 24 18 56v443q0 32 -15.5 71t-37.5 61l-175 174q-6 6 -6 15t6 15t15 6t15 -6l175 -174q28 -28 47 -74.5t19 -87.5v-443q0 -46 -26 -81q-7 -9 -17 -9v0z" />
    <glyph glyph-name="icbottombarglobaln" unicode="&#xe652;" 
d="M512 853q-95 0 -182 -37t-150 -100t-100 -150t-37 -182t37 -182t100 -150t150 -100t182 -37t182 37t150 100t100 150t37 182t-37 182t-100 150t-150 100t-182 37zM512 -43q-89 0 -169 35t-139 97q41 28 52 75q10 39 6 93q-1 14 -5 44q-10 81 -1 119q11 41 39 74q0 1 6 8
q29 33 40 66q29 86 -63 173q106 70 234 70q75 0 146 -26q-4 -4 -12 -33q-9 -35 2.5 -64.5t44.5 -63.5q24 -27 19 -27l-10 5q-32 14 -55 18q-28 5 -51 -2q-132 -44 -99 -175q6 -24 21.5 -35.5t46.5 -19.5q2 0 4 -1q22 -5 28 -9.5t6 -14.5q0 -81 28 -136.5t79 -55.5
q34 0 63.5 34t46 83t16.5 96q0 52 2 64q1 3 26 -2q43 -10 71 -4q4 -29 4 -58q0 -116 -57.5 -214t-155.5 -155.5t-214 -57.5zM176 121q-91 116 -91 263q0 98 42 184.5t116 146.5q41 -38 54.5 -70t3.5 -64q-8 -24 -32 -51q-4 -5 -7 -8q-34 -40 -47 -92q-7 -30 -7 -56.5
t7 -77.5q3 -29 4 -43q4 -47 -4 -79q-8 -33 -39 -53zM688 741q3 14 15 22q0 1 -2 4q84 -42 144 -116.5t82 -166.5q-20 -5 -54 3q-14 3 -18 4q-10 2 -17 2q-34 0 -42 -37q-3 -16 -3 -72q0 -36 -12.5 -76t-32.5 -67.5t-38 -27.5q-27 0 -45.5 44.5t-18.5 105.5q0 29 -15 43
t-52 23q-2 0 -4 1q-19 5 -26.5 9.5t-10.5 13.5q-12 49 5.5 78.5t66.5 45.5q12 4 29 1q18 -3 46 -15q2 -1 11.5 -5.5t11.5 -5.5q14 -6 22 -8q19 -4 31.5 4.5t12.5 27.5q0 20 -19 43q-5 7 -15 17l-2.5 2.5l-5 5t-5 5.5t-3.5 4q-25 26 -33.5 46t-2.5 42z" />
    <glyph glyph-name="icbottombarglobalh" unicode="&#xe653;" 
d="M248 719q74 -73 51 -143q-7 -21 -19.5 -38.5t-23.5 -28.5t-23 -32t-20 -50q-10 -42 0.5 -127.5t-0.5 -128.5q-8 -32 -33 -55q-95 118 -95 268q0 100 43.5 187.5t119.5 147.5zM931 464q-24 -4 -39 -2.5t-34.5 6t-25.5 4.5q-16 0 -19.5 -17t-3.5 -71q0 -34 -12.5 -77.5
t-37.5 -79t-55 -35.5q-23 0 -40.5 17.5t-26.5 44.5t-13.5 54.5t-4.5 54.5q0 21 -15 32t-33 13t-36 11.5t-23 28.5q-28 112 85 149q20 7 40.5 2.5t40 -12.5t35 -15.5t25 -7.5t9.5 12q0 14 -16.5 33t-34.5 36.5t-30 45t-5 56.5q5 17 18 29q97 -41 164.5 -124t87.5 -188z
M981 410l-0.5 0.5l-0.5 0.5q-9 169 -124.5 293t-282.5 145q-2 1 -5 1l-22 2h-2.5h-3.5q-15 1 -28 1q-17 0 -38 -1q-1 0 -3 -0.5t-3 -0.5q-17 -1 -35 -4q-2 -1 -7 -2q-18 -3 -35 -7q0 -1 -1.5 -1h-1.5q-19 -6 -36 -12v0q-16 -6 -34 -14q-1 0 -2 -0.5t-2 -1.5q-16 -7 -32 -16
l-3 -2q-17 -10 -32 -20v0q-16 -11 -31 -23v0q-81 -66 -127 -161t-46 -203q0 -164 102 -293v0q33 -40 73 -73v0q9 -7 19 -15l3 -1q9 -6 18 -13q3 -1 4 -2q9 -6 18 -11q3 -1 3 -2q10 -5 21 -11h0.5t1.5 -1q23 -11 47 -20l3 -1q11 -4 20 -6q2 -1 8 -2q9 -3 16 -5q3 -1 9 -2
q8 -2 16 -3q6 -1 10 -2q7 -1 16 -2q8 -1 9 -1q8 -1 18 -2l8 -1h26q95 0 182 37t150 100t100 150t37 182v26v0z" />
    <glyph glyph-name="icbottombarcartn" unicode="&#xe654;" 
d="M309.5 64q-35.5 0 -60.5 -25t-25 -60.5t25 -60.5t60.5 -25t60.5 25t25 60.5t-25 60.5t-60.5 25zM864 64q-35 0 -60 -25t-25 -60.5t25 -60.5t60 -25t60 25t25 60.5t-25 60.5t-60 25zM309.5 21q17.5 0 30 -12.5t12.5 -30t-12.5 -30t-30 -12.5t-30 12.5t-12.5 30t12.5 30
t30 12.5zM864 21q18 0 30.5 -12.5t12.5 -30t-12.5 -30t-30.5 -12.5t-30.5 12.5t-12.5 30t12.5 30t30.5 12.5zM587 85q-102 0 -190.5 48t-143.5 131.5t-63 183.5h790q-8 -100 -62 -183t-142 -131.5t-189 -48.5v0zM827 776q7 9 15 2q64 -54 100.5 -129t38.5 -158h-364z
M1024 491v0q-3 100 -49 187.5t-124 146.5q-11 9 -24.5 7t-20.5 -13l-242 -328h-383q0 2 -1.5 12t-2.5 15q-3 22 -14.5 99.5t-12.5 87.5q-9 55 -13 72q-3 11 -8 20q-30 56 -103 56h-5q-9 0 -15 -6t-6 -14t6 -14t15 -6h5q47 0 65 -34q3 -6 5 -12q4 -15 12 -68
q1 -10 12.5 -87.5t14.5 -99.5q6 -42 13 -86.5t23 -88.5q11 -31 30 -63q56 -105 159 -168t227 -63q113 0 210.5 53.5t157 146.5t68.5 205q0 7 0.5 23t0.5 20v0z" />
    <glyph glyph-name="icbottombarcarth" unicode="&#xe655;" 
d="M309.5 64q-35.5 0 -60.5 -25t-25 -60.5t25 -60.5t60.5 -25t60.5 25t25 60.5t-25 60.5t-60.5 25zM864 64q-35 0 -60 -25t-25 -60.5t25 -60.5t60 -25t60 25t25 60.5t-25 60.5t-60 25zM309.5 21q17.5 0 30 -12.5t12.5 -30t-12.5 -30t-30 -12.5t-30 12.5t-12.5 30t12.5 30
t30 12.5zM864 21q18 0 30.5 -12.5t12.5 -30t-12.5 -30t-30.5 -12.5t-30.5 12.5t-12.5 30t12.5 30t30.5 12.5zM1024 480v11v0h-460h-383q0 3 -1.5 12.5t-2.5 14.5q-3 22 -14.5 99.5t-12.5 87.5q-9 55 -13 72q-3 11 -8 20q-30 56 -103 56h-5q-9 0 -15 -6t-6 -14t6 -14t15 -6h5
q47 0 65 -34q3 -6 5 -12q4 -15 12 -68q1 -11 12.5 -89.5t14.5 -97.5q6 -43 13 -86q7 -45 23 -89q11 -31 30 -63q56 -105 159 -168t227 -63q113 0 210.5 53.5t157 146.5t67.5 205h1q1 16 1 32v0v0zM851 825q-11 9 -24.5 7t-20.5 -13l-210 -286h425q-11 88 -55.5 164
t-114.5 128v0z" />
    <glyph glyph-name="icbottombarminen" unicode="&#xe656;" 
d="M682.5 299q35.5 0 60.5 25t25 60q0 9 -6.5 15t-15 6t-15 -6t-6.5 -15q0 -18 -12.5 -30.5t-30 -12.5t-30 12.5t-12.5 30.5q0 9 -6.5 15t-15 6t-15 -6t-6.5 -15q0 -35 25 -60t60.5 -25zM256 384q0 -35 25 -60t60.5 -25t60.5 25t25 60q0 9 -6.5 15t-15 6t-15 -6t-6.5 -15
q0 -18 -12.5 -30.5t-30 -12.5t-30 12.5t-12.5 30.5q0 9 -6.5 15t-15 6t-15 -6t-6.5 -15zM918 299l-32 -1l-9 -30q-29 -100 -96.5 -166t-163.5 -90q23 33 23 73q0 53 -37.5 90.5t-90.5 37.5t-90.5 -37.5t-37.5 -90.5q0 -40 23 -73q-96 24 -163.5 90t-96.5 166l-9 30l-32 1
q-26 0 -44.5 18.5t-18.5 45.5q0 23 15 41t38 22l32 5l3 32q15 134 92.5 223.5t198.5 114.5q-13 -15 -22 -32q-29 -65 -6 -124q14 -42 50 -66t79 -24q20 0 42 4q45 17 64 58q19 39 5 85q-12 37 -47.5 54t-72.5 4q-33 -10 -47 -41q-16 -27 -5 -60q9 -25 35 -37.5t52 -2.5
q9 3 13 11.5t1 16.5q-2 8 -10.5 12t-16.5 0q-10 -3 -20 1.5t-13 13.5q-5 16 2 28q6 12 22 20q20 6 40 -3.5t27 -29.5q10 -29 -2 -53q-15 -25 -41 -34q-34 -13 -69 3.5t-48 51.5q-18 47 4 92q20 44 67 61q1 0 3.5 0.5t3.5 0.5q156 0 260 -95t121 -253l3 -32l32 -5
q23 -4 38 -22t15 -41q0 -27 -18.5 -45.5t-44.5 -18.5zM554 12q-2 31 -14 52t-28 21t-28 -21t-14 -52q-20 11 -31.5 30.5t-11.5 42.5q0 36 25 61t60 25t60 -25t25 -61q0 -23 -11.5 -42.5t-31.5 -30.5zM935 468q-19 172 -133 278.5t-290 106.5h-4.5h-4h-4.5
q-171 -5 -281.5 -110.5t-128.5 -274.5q-38 -7 -63.5 -36.5t-25.5 -68.5q0 -44 31 -75.5t75 -31.5q37 -128 134 -207.5t235 -89.5q12 -44 37 -44q12 0 22 12t15 32q138 10 235 89.5t134 207.5q44 0 75 31.5t31 75.5q0 39 -25.5 68.5t-63.5 36.5v0z" />
    <glyph glyph-name="icbottombarmineh" unicode="&#xe657;" 
d="M746.5 299q-8.5 0 -15 6t-6.5 15q0 18 -12.5 30.5t-30 12.5t-30 -12.5t-12.5 -30.5q0 -9 -6.5 -15t-15 -6t-15 6t-6.5 15q0 35 25 60t60.5 25t60.5 -25t25 -60q0 -9 -6.5 -15t-15 -6zM554 11q-2 32 -14 53t-28 21t-28 -21t-14 -53q-20 11 -31.5 31t-11.5 43q0 36 25 61
t60 25t60 -25t25 -61q0 -23 -11.5 -43t-31.5 -31zM405.5 299q-8.5 0 -15 6t-6.5 15q0 18 -12.5 30.5t-30 12.5t-30 -12.5t-12.5 -30.5q0 -9 -6.5 -15t-15 -6t-15 6t-6.5 15q0 35 25 60t60.5 25t60.5 -25t25 -60q0 -9 -6.5 -15t-15 -6zM935 468q-19 172 -133 278.5
t-290 106.5h-9q15 -1 17 -14q4 -8 -0.5 -16t-12.5 -12q-49 -16 -69 -62q-22 -45 -4 -92q13 -35 48 -51.5t69 -3.5q26 9 41 34q12 24 2 53q-7 20 -27 29.5t-40 3.5q-16 -8 -22 -20q-7 -12 -2 -28q3 -9 13 -13.5t20 -1.5q8 4 16.5 0t10.5 -12q3 -8 -1 -16.5t-13 -11.5
q-26 -10 -52 2.5t-35 37.5q-11 33 5 60q14 31 47 41q37 13 72.5 -4t47.5 -54q14 -46 -5 -85q-19 -42 -64 -58q-22 -4 -42 -4q-43 0 -79 24t-50 66q-23 59 6 124q31 60 94 83q2 1 4 1q-170 -4 -280.5 -110t-128.5 -275q-38 -7 -63.5 -36.5t-25.5 -68.5q0 -44 31 -75.5
t75 -31.5q37 -128 134 -207.5t235 -89.5q5 -20 15 -32t22 -12t22 12t15 32q138 10 235 89.5t134 207.5q44 0 75 31.5t31 75.5q0 39 -25.5 68.5t-63.5 36.5v0z" />
    <glyph glyph-name="qingcang2" unicode="&#xe658;" 
d="M512 896q-139 0 -257 -68.5t-186.5 -186.5t-68.5 -257t68.5 -257t186.5 -186.5t257 -68.5t257 68.5t186.5 186.5t68.5 257t-68.5 257t-186.5 186.5t-257 68.5zM512 -49q-118 0 -217.5 58t-157.5 157.5t-58 217.5q0 61 16 118h152q22 -38 66 -39l171 -314q-11 -18 -11 -41
q0 -32 23 -55t55.5 -23t55.5 23t23 55q0 14 -5 27l110 132q7 -1 13 -1q46 0 69 39h121q-28 -152 -148 -253t-278 -101zM512 817q118 0 217.5 -58t157.5 -157.5t58 -217.5h-128q-23 39 -69 39q-32 0 -55 -23t-23 -55q0 -15 4 -28l-109 -131q-6 1 -12 1l-171 313q12 19 12 42
q0 32 -23 55t-56 23q-45 0 -68 -39h-121q55 107 158.5 171.5t227.5 64.5z" />
    <glyph glyph-name="qingcang1" unicode="&#xe659;" 
d="M0 384q0 139 68.5 257t186.5 186.5t257 68.5t257 -68.5t186.5 -186.5t68.5 -257t-68.5 -257t-186.5 -186.5t-257 -68.5t-257 68.5t-186.5 186.5t-68.5 257zM945 384q0 118 -58 217.5t-157.5 157.5t-217.5 58t-217.5 -58t-157.5 -157.5t-58 -217.5t58 -217.5t157.5 -157.5
t217.5 -58t217.5 58t157.5 157.5t58 217.5zM304 97l6 221l-135 176l212 62l125 182l125 -182l212 -62l-135 -176l6 -221l-208 74zM486 246l26 9l26 -9l100 -37l-2 107l-1 28l17 22l65 84l-102 31l-27 7l-16 24l-60 87l-60 -87l-16 -24l-27 -7l-101 -31l64 -84l17 -22l-1 -28
l-2 -105z" />
    <glyph glyph-name="qingcang3" unicode="&#xe65a;" 
d="M444 345h-168v-79h168q23 -40 68 -40q33 0 56 23.5t23 55.5q0 46 -40 68v326h-78v-326q-19 -10 -29 -28zM0 384q0 139 68.5 257t186.5 186.5t257 68.5t257 -68.5t186.5 -186.5t68.5 -257t-68.5 -257t-186.5 -186.5t-257 -68.5t-257 68.5t-186.5 186.5t-68.5 257zM945 384
q0 118 -58 217.5t-157.5 157.5t-217.5 58t-217.5 -58t-157.5 -157.5t-58 -217.5t58 -217.5t157.5 -157.5t217.5 -58t217.5 58t157.5 157.5t58 217.5z" />
    <glyph glyph-name="icsearchdel" unicode="&#xe65b;" 
d="M721 593v70q0 39 -27 66t-66 27h-232q-39 0 -66 -27t-27 -66v-70h-163v-46h744v46h-163zM675 593h-326v70q0 20 13.5 33.5t33.5 13.5h232q20 0 33.5 -14t13.5 -33v-70zM419 151h46v349h-46v-349zM559 151h46v349h-46v-349zM721 500v-418q0 -20 -13.5 -33.5t-32.5 -13.5
h-326q-19 0 -32.5 13.5t-13.5 33.5v418h-24h-23v-418q0 -39 27.5 -66.5t65.5 -27.5h326q38 0 65.5 27.5t27.5 66.5v418h-23h-24z" />
    <glyph glyph-name="icfloatingmore" unicode="&#xe65c;" 
d="M884.5 477q-38.5 0 -66 -27t-27.5 -66t27.5 -66t66 -27t65.5 27t27 66t-27 66t-65.5 27zM512 477q-39 0 -66 -27t-27 -66t27 -66t66 -27t66 27t27 66t-27 66t-66 27zM140 477q-39 0 -66 -27t-27 -66t27 -66t65.5 -27t66 27t27.5 66t-27.5 66t-65.5 27v0z" />
    <glyph glyph-name="icfloatingmine" unicode="&#xe65d;" 
d="M357 478q-32 0 -55 -23t-23 -55q0 -8 6 -14t14 -6t13.5 6t5.5 14q0 16 11.5 27.5t27.5 11.5t27.5 -11.5t11.5 -27.5q0 -8 5.5 -14t13.5 -6t13.5 6t5.5 14q0 32 -22.5 55t-54.5 23zM906 382q-10 -5 -22 -5q-13 0 -25 7q-10 -115 -75 -194t-171 -106v0q-12 -3 -28 -5
q14 2 28 5q15 27 15 59q0 48 -34 82.5t-82 34.5t-82 -34.5t-34 -82.5q0 -32 15 -59q14 -3 28 -5q-16 2 -28 5v0q-106 27 -171 106t-75 194q-12 -7 -25 -7q-12 0 -22 5q-25 13 -25 41.5t25 41.5q10 5 22 5q13 0 25 -7q10 121 82 202.5t188 102.5q-15 -16 -25 -36
q-27 -59 -6 -113q14 -38 46.5 -60t71.5 -22q18 0 38 3q41 16 59 53q17 37 4 79q-11 33 -43.5 48.5t-65.5 3.5q-30 -9 -43 -37q-14 -25 -4 -55q8 -23 31.5 -34.5t47.5 -2.5q8 3 11.5 10.5t0.5 15.5q-2 7 -9.5 10.5t-14.5 0.5q-9 -3 -18.5 1t-12.5 13q-3 14 2 26q6 10 21 17
q18 6 36 -3t24 -26q10 -27 -2 -49q-13 -23 -36 -31q-32 -12 -63.5 3t-43.5 47q-16 43 4 85q18 41 62 56q4 1 6 3q146 0 240 -85t106 -226q12 7 25 7q12 0 22 -5q25 -13 25 -41.5t-25 -41.5zM556 88q-5 24 -17 39.5t-27 15.5t-27 -15.5t-17 -39.5q-26 22 -26 55
q0 29 20.5 49.5t49.5 20.5t49.5 -20.5t20.5 -49.5q0 -33 -26 -55zM899 516q0 -2 0.5 -4.5t0.5 -4.5q-25 142 -129 228t-259 86t-259 -86t-129 -228q0 1 0.5 4t0.5 5q-33 -5 -55.5 -31.5t-22.5 -61t22.5 -61t55.5 -31.5q0 1 -0.5 4t-0.5 4q23 -131 115 -215.5t231 -96.5v0h-1
q6 -22 17.5 -35t25.5 -13t25.5 13t17.5 35h-1q139 12 231 96.5t115 215.5q0 -1 -0.5 -4t-0.5 -4q33 5 55.5 31.5t22.5 61t-22.5 61t-55.5 31.5zM667 478q-32 0 -54.5 -23t-22.5 -55q0 -8 5.5 -14t13.5 -6t13.5 6t5.5 14q0 16 11.5 27.5t27.5 11.5t27.5 -11.5t11.5 -27.5
q0 -8 5.5 -14t13.5 -6t14 6t6 14q0 32 -23 55t-55 23v0z" />
    <glyph glyph-name="icfloatingcart" unicode="&#xe65e;" 
d="M957 481q-6 52 -26 99.5t-44 78.5t-47 54.5t-39 33.5l-15 11l-242 -277h-301q-4 33 -8 95q-1 27 -2 40.5t-3.5 38.5t-6 39t-9.5 35t-13.5 33t-19 26.5t-26 21.5t-33.5 12.5t-42 5.5q-10 0 -16.5 -7t-6.5 -16t6.5 -16t16.5 -7q23 0 40 -6t28.5 -20t18.5 -29t11.5 -42
t7 -50t4.5 -61q3 -66 8 -102q3 -100 54 -184.5t138 -133.5t189 -49q145 0 253 95.5t125 236.5q1 17 1 22zM792 696q102 -88 119 -214h-305zM578.5 150q-126.5 0 -221 82t-111.5 204h665q-17 -122 -111.5 -204t-221 -82zM338 133q-35 0 -59.5 -24.5t-24.5 -59t24.5 -58.5
t59.5 -24t59.5 24t24.5 58.5t-24.5 59t-59.5 24.5zM818.5 139q-37.5 0 -64 -26t-26.5 -63t26.5 -63.5t64 -26.5t64 26.5t26.5 63.5t-26.5 63t-64 26zM338 87q16 0 27.5 -11t11.5 -26.5t-11.5 -26.5t-27.5 -11t-27 11t-11 26.5t11 26.5t27 11zM819 94q19 0 32 -13t13 -31
t-13 -31t-32 -13t-32 13t-13 31t13 31t32 13z" />
    <glyph glyph-name="icfloatinghome" unicode="&#xe65f;" 
d="M761 -81h-99q-30 0 -51.5 21.5t-21.5 51.5v191q0 10 -7.5 17t-17.5 7h-99q-10 0 -17 -7t-7 -17v-191q0 -30 -22 -51.5t-52 -21.5h-99q-30 0 -51.5 21.5t-21.5 51.5v314q0 10 -7.5 17t-17.5 7h-49q-37 0 -48 25.5t13 52.5l377 419q20 22 51.5 22t51.5 -22l377 -419
q25 -27 13.5 -52.5t-47.5 -25.5h-50q-10 0 -17 -7t-7 -17v-314q0 -30 -22 -51.5t-52 -21.5v0v0zM465 257h99q30 0 52 -22t22 -52v-191q0 -10 7 -17t17 -7h99q10 0 17.5 7t7.5 17v314q0 30 21.5 52t51.5 22h44l-374 414q-6 7 -14.5 7t-14.5 -7l-373 -414h43q30 0 52 -22
t22 -52v-314q0 -10 7 -17t17 -7h99q10 0 17.5 7t7.5 17v191q0 30 21.5 52t51.5 22v0v0z" />
    <glyph glyph-name="icfloatingclose" unicode="&#xe660;" 
d="M568 384l309 309q7 7 7 16.5t-7 16.5t-16.5 7t-16.5 -7l-309 -309l-332 309q-7 7 -16.5 7t-16.5 -7t-7 -17t7 -17l331 -308l-309 -309q-6 -7 -6 -16.5t6.5 -16.5t16.5 -7t16 7l309 309l309 -309q7 -7 16.5 -7t16.5 7t7 17t-7 17z" />
    <glyph glyph-name="icfloatingback" unicode="&#xe661;" 
d="M186 803h652v-47h-652v47zM533 674q-7 13 -21 13q-8 0 -14.5 -5.5t-8.5 -13.5q-4 -2 -6 -5l-297 -296q-7 -7 -7 -16.5t7 -16.5t16.5 -7t16.5 7l270 270v-639q0 -10 6.5 -16.5t16.5 -6.5t16.5 6.5t6.5 16.5v642l267 -266q6 -7 15.5 -7t16.5 7t7 16.5t-7 16.5l-296 296
q-2 3 -5 4z" />
    <glyph glyph-name="icsearchbardel" unicode="&#xe662;" 
d="M737 255q16 -16 16 -39t-16 -39t-38.5 -16t-39.5 16l-129 129l-129 -129q-16 -16 -38.5 -16t-39 16t-16.5 39t17 39l129 129l-129 129q-17 16 -17 39t16 39t39 16t39 -16l129 -129l129 129q17 16 39.5 16t38.5 -16t16 -39t-16 -39l-129 -129zM512 896q-104 0 -199 -40.5
t-163.5 -109t-109 -163.5t-40.5 -199t40.5 -199t109 -163.5t163.5 -109t199 -40.5t199 40.5t163.5 109t109 163.5t40.5 199t-40.5 199t-109 163.5t-163.5 109t-199 40.5v0z" />
    <glyph glyph-name="icshangxiangbaozheng" unicode="&#xe663;" 
d="M512 -81q95 0 181 36.5t148.5 99t99 148.5t36.5 181t-36.5 181t-99 148.5t-148.5 99t-181 36.5t-181 -36.5t-148.5 -99t-99 -148.5t-36.5 -181t36.5 -181t99 -148.5t148.5 -99t181 -36.5zM512 896q139 0 257 -68.5t186.5 -186.5t68.5 -257t-68.5 -257t-186.5 -186.5
t-257 -68.5t-257 68.5t-186.5 186.5t-68.5 257t68.5 257t186.5 186.5t257 68.5zM423 298l-87 87q-10 10 -23.5 10t-23.5 -10t-10 -24t10 -24l110 -109q10 -10 24 -10t24 10l315 315q9 9 9 23t-9.5 24t-23.5 10t-24 -10z" />
    <glyph glyph-name="ictoolbarcollect" unicode="&#xe664;" 
d="M274 -32q-27 -14 -42.5 -3t-10.5 41l46 266l-193 188q-22 21 -16 39t36 22l266 39l120 241q13 27 32 27t32 -27l120 -241l266 -39q30 -4 36 -22t-16 -39l-193 -188l46 -266q5 -30 -10.5 -41t-42.5 3l-238 125zM489 137l23 11l23 -11l215 -114l-41 240l-4 26l18 17
l175 170l-241 36l-26 3l-11 23l-108 219l-108 -219l-11 -23l-26 -3l-240 -36l174 -170l18 -17l-4 -26l-41 -240z" />
    <glyph glyph-name="icfloatingcart-copy" unicode="&#xe665;" 
d="M957 481q-6 52 -26 99.5t-44 78.5t-47 54.5t-39 33.5l-15 11l-242 -277h-301q-4 33 -8 95q-1 27 -2 40.5t-3.5 38.5t-6 39t-9.5 35t-13.5 33t-19 26.5t-26 21.5t-33.5 12.5t-42 5.5q-10 0 -16.5 -7t-6.5 -16t6.5 -16t16.5 -7q23 0 40 -6t28.5 -20t18.5 -29t11.5 -42
t7 -50t4.5 -61q3 -66 8 -102q3 -100 54 -184.5t138 -133.5t189 -49q145 0 253 95.5t125 236.5q1 17 1 22zM792 696q102 -88 119 -214h-305zM578.5 150q-126.5 0 -221 82t-111.5 204h665q-17 -122 -111.5 -204t-221 -82zM338 133q-35 0 -59.5 -24.5t-24.5 -59t24.5 -58.5
t59.5 -24t59.5 24t24.5 58.5t-24.5 59t-59.5 24.5zM818.5 139q-37.5 0 -64 -26t-26.5 -63t26.5 -63.5t64 -26.5t64 26.5t26.5 63.5t-26.5 63t-64 26zM338 87q16 0 27.5 -11t11.5 -26.5t-11.5 -26.5t-27.5 -11t-27 11t-11 26.5t11 26.5t27 11zM819 94q19 0 32 -13t13 -31
t-13 -31t-32 -13t-32 13t-13 31t13 31t32 13z" />
    <glyph glyph-name="icpingjiabigstar" unicode="&#xe666;" 
d="M516 114l-207 -109q-34 -18 -53.5 -4t-12.5 52l39 231l-167 163q-28 27 -20.5 50t45.5 28l231 34l104 209q17 35 41 35t41 -35l104 -209l231 -34q38 -5 45.5 -28t-20.5 -50l-167 -163l40 -231q6 -38 -13.5 -52t-53.5 4z" />
    <glyph glyph-name="icpingjiasmallstar" unicode="&#xe667;" 
d="M516 141l-154 -82q-52 -27 -81.5 -5.5t-20.5 79.5l30 172l-125 121q-42 41 -30.5 76t69.5 43l172 25l77 157q26 52 63 52t62 -52l78 -157l172 -25q58 -8 69.5 -43t-30.5 -76l-125 -121l29 -172q10 -58 -19.5 -79.5t-81.5 5.5z" />
    <glyph glyph-name="iccheckbox" unicode="&#xe668;" 
d="M785 549l-362 -362q-11 -11 -27 -11t-28 11l-126 127q-12 11 -12 26.5t11.5 27t27.5 11.5t27 -11l100 -100l334 335q12 11 27.5 11t27 -11t11.5 -27t-11 -27zM512 896q-104 0 -199 -40.5t-163.5 -109t-109 -163.5t-40.5 -199t40.5 -199t109 -163.5t163.5 -109t199 -40.5
t199 40.5t163.5 109t109 163.5t40.5 199t-40.5 199t-109 163.5t-163.5 109t-199 40.5v0z" />
    <glyph glyph-name="icjiesuanadd" unicode="&#xe669;" 
d="M493 107q7 -5 18.5 -5t17.5 5l2 1q3 2 8 6q11 8 23 17q37 31 69 67q99 115 99 243q0 90 -64 154t-154 64t-154 -64t-64 -154q0 -134 99 -247q31 -36 68 -65q12 -9 23 -16q5 -3 7 -5zM265 441q0 102 72.5 174t174.5 72t174.5 -72t72.5 -174q0 -167 -149 -305
q-35 -33 -64 -52q-14 -10 -34.5 -10t-34.5 10q-9 5 -23 14.5t-50.5 44t-64.5 72.5t-50.5 99.5t-23.5 126.5zM597 441q0 35 -25 60t-60 25t-60 -25t-25 -60t25 -60t60 -25t60 25t25 60zM398 441q0 47 33.5 80.5t80.5 33.5t80.5 -33.5t33.5 -80.5t-33.5 -80.5t-80.5 -33.5
t-80.5 33.5t-33.5 80.5z" />
    <glyph glyph-name="icdizhiguanliadd" unicode="&#xe66a;" 
d="M488 28q9 -6 23.5 -6t22.5 6l3 2q3 2 10 7q14 10 29 22q48 39 89 86q127 148 127 312q0 116 -82 198.5t-198 82.5t-198 -82.5t-82 -198.5q0 -172 127 -317q40 -46 88 -83q15 -12 29 -21q6 -5 10 -7zM195 457q0 131 93 224t224 93t224 -93t93 -224q0 -46 -9.5 -90.5
t-25 -82t-36 -72.5t-43 -63t-45.5 -52.5t-43.5 -42t-36 -30.5t-24.5 -19l-10 -6q-18 -14 -44.5 -14t-44.5 13q-6 3 -15.5 9.5t-38 29t-54 48t-57 66.5t-54 84.5t-38 102t-15.5 119.5zM622 457.5q0 45.5 -32.5 77.5t-77.5 32t-77.5 -32t-32.5 -77.5t32.5 -78t77.5 -32.5
t77.5 32.5t32.5 78zM366 457.5q0 60.5 42.5 103t103.5 42.5t103.5 -42.5t42.5 -103t-42.5 -103.5t-103.5 -43t-103.5 43t-42.5 103.5z" />
    <glyph glyph-name="icjiesuanweixin" unicode="&#xe606;" 
d="M0 677q0 91 64 155t155 64h586q91 0 155 -64t64 -155v-586q0 -91 -64 -155t-155 -64h-586q-91 0 -155 64t-64 155v586zM637 484q11 0 26 -2q-17 82 -93.5 136t-174.5 54q-110 0 -188 -67t-78 -163q0 -106 106 -182l-26 -81l93 48q67 -14 93 -14q11 0 24 1q-8 29 -8 57
q0 88 66 150.5t160 62.5zM494 557q15 0 24.5 -9t9.5 -24.5t-9.5 -24.5t-24.5 -9t-27.5 9.5t-12.5 24t12.5 24t27.5 9.5zM308 490q-15 0 -27.5 9.5t-12.5 24t12.5 24t27.5 9.5t24.5 -9t9.5 -24.5t-9.5 -24.5t-24.5 -9zM880 274q0 80 -67.5 138t-158.5 58q-94 0 -160 -57.5
t-66 -138.5t65.5 -138.5t160.5 -57.5q27 0 80 14l73 -41l-20 68q93 71 93 155zM581 308q-10 0 -18.5 8t-8.5 18.5t8.5 19t18.5 8.5q14 0 23.5 -8.5t9.5 -19t-9.5 -18.5t-23.5 -8zM727 308q-10 0 -18 8t-8 18.5t8 19t18 8.5q14 0 23.5 -8.5t9.5 -19t-9.5 -18.5t-23.5 -8z" />
    <glyph glyph-name="icjiesuanxianjinquan" unicode="&#xe66b;" 
d="M183 274v-91q0 -30 21.5 -51.5t51.5 -21.5h512q30 0 51.5 21.5t21.5 51.5v402q0 30 -21.5 51.5t-51.5 21.5h-512q-30 0 -51.5 -21.5t-21.5 -51.5v-91q45 0 77.5 -32.5t32.5 -77.5t-32.5 -77.5t-77.5 -32.5zM0 677q0 91 64 155t155 64h586q91 0 155 -64t64 -155v-586
q0 -91 -64 -155t-155 -64h-586q-91 0 -155 64t-64 155v586zM384 594q0 12 8 20t19.5 8t19.5 -8t8 -20v-36q0 -12 -8 -20t-19.5 -8t-19.5 8t-8 20v36zM384 466q0 12 8 20t19.5 8t19.5 -8t8 -20v-36q0 -12 -8 -20t-19.5 -8t-19.5 8t-8 20v36zM384 338q0 12 8 20t19.5 8
t19.5 -8t8 -20v-36q0 -12 -8 -20t-19.5 -8t-19.5 8t-8 20v36zM384 210q0 12 8 20t19.5 8t19.5 -8t8 -20v-36q0 -12 -8 -20t-19.5 -8t-19.5 8t-8 20v36z" />
    <glyph glyph-name="icjiesuanyue" unicode="&#xe66c;" 
d="M0 677q0 91 64 155t155 64h586q91 0 155 -64t64 -155v-586q0 -91 -64 -155t-155 -64h-586q-91 0 -155 64t-64 155v586zM581 549h-163q-34 -40 -86 -86q-50 -44 -76.5 -105.5t-13.5 -132.5q6 -35 24.5 -66.5t49 -58t78 -42t105.5 -15.5q114 0 189.5 51.5t89.5 130.5
q2 25 3.5 44.5t-3.5 40t-9.5 35t-14 30.5t-17.5 27t-19.5 23t-20 19.5t-19.5 17.5q-26 22 -50 43.5t-36 32.5zM582 234q21 0 22 -18q0 -8 -5 -14t-12 -6h-63q1 -14 1 -22q0 -7 -6 -13t-15 -6q-21 1 -22 20v21h-63q-7 0 -12 6.5t-5 13.5t5 12.5t12 5.5h63v43h-61
q-7 0 -11.5 4.5t-4.5 10.5q0 7 5 16t11 9h61v15q-48 52 -54 58q-15 15 -3 28q7 7 16 4.5t16 -8.5l47 -49q45 43 55 50q7 6 15 6t14 -6q10 -12 -7 -27l-56 -56v-15h58q9 0 15 -8t6 -15q-1 -17 -21 -17h-58v-43h57zM392 630q7 -6 15 -16.5t13 -17.5l5 -7h156q16 28 26 41
q21 28 38 39q12 8 14.5 22t-11.5 21q-10 4 -23 -2t-22 -6q-11 0 -22.5 10.5t-19.5 13.5q-22 9 -42 -10q-5 -5 -9 -8t-6 -4h-1q-14 8 -22 17q-6 7 -18 8t-22 -5q-7 -4 -13 -9t-10.5 -8t-11 -4.5t-30 6t-31.5 1.5q-9 -9 -6 -20t13 -19q5 -4 12 -11t15 -17t13 -15z" />
    <glyph glyph-name="icjiesuanbeike59cb85" unicode="&#xe66d;" 
d="M0 677q0 91 64 155t155 64h586q91 0 155 -64t64 -155v-586q0 -91 -64 -155t-155 -64h-586q-91 0 -155 64t-64 155v586zM788 475q1 0 1 5t-0.5 13t-2.5 18.5t-6 22t-10.5 23.5t-17.5 22.5t-24.5 18.5t-33.5 13t-44 5q-1 0 -2.5 2t-5 5.5t-9 8t-12.5 9.5t-15 10t-18.5 9.5
t-22 8t-25.5 6t-28 2.5q-19 0 -36 -3.5t-29 -9.5t-22 -12.5t-16.5 -13t-11 -12.5t-6.5 -9.5t-3 -3.5q-41 0 -71 -12t-46 -34t-23 -45.5t-7 -51.5l-3 -1.5t-8.5 -5t-11.5 -8.5t-12 -13t-11.5 -17t-8.5 -21.5t-3 -26.5q0 -40 17.5 -76t48.5 -62.5t63.5 -46t70.5 -34.5l8 -1
q18 -25 56 -45.5t70 -20.5q27 0 57 16.5t50 39.5h8q36 15 70.5 36.5t67 50t52 66t19.5 77.5q0 76 -46 96q-5 2 -7 2zM776 434l-117 -156q-5 -5 -12.5 -5.5t-13.5 4t-6 11.5t5 12l117 157q5 5 12.5 5.5t13 -4.5t6 -12t-4.5 -12zM574 311q-3 -7 -10 -9.5t-14 0t-10 9t0 12.5
l93 268q3 6 10 9t14 0.5t10 -9t0 -12.5zM482 310.5q-7 -2.5 -13.5 0t-9.5 9.5l-74 250q-3 6 0 12.5t10 9t14 0t10 -9.5l73 -250q3 -7 0 -13t-10 -8.5zM400.5 280q-5.5 -5 -13 -4.5t-12.5 5.5l-114 159q-5 5 -4.5 12t6 12t12.5 4.5t12 -5.5l115 -159q5 -5 4.5 -12t-6 -12z
" />
    <glyph glyph-name="icjiesuanshenghuofeiffba64" unicode="&#xe66e;" 
d="M0 677q0 91 64 155t155 64h586q91 0 155 -64t64 -155v-586q0 -91 -64 -155t-155 -64h-586q-91 0 -155 64t-64 155v586zM508 178q112 0 191 73t79 176.5t-79 176.5t-191 73t-191 -73.5t-79 -176.5t79 -176t191 -73zM777 389q-3 -105 -81.5 -178.5t-188 -73.5t-188 73.5
t-81.5 178.5v0v-2v-1q0 -121 79 -206t191 -85t191 85t79 206v1v2h-1zM438 406q-13 0 -13 12q0 4 4 7t9 3h37l-43 66q-7 9 8 15q5 2 12 0.5t10 -5.5l46 -76l47 77q2 3 10.5 4.5t13.5 -0.5q6 -2 9.5 -6.5t0.5 -8.5l1 1l-47 -67h34q6 0 10 -3t4 -8q0 -11 -14 -11h-55v-39h55
q6 0 10 -3.5t4 -8.5q0 -4 -4 -7.5t-10 -3.5h-55v-31q0 -10 -15 -10q-6 0 -10.5 3t-4.5 7v31h-54q-5 0 -9 3.5t-4 8.5q0 4 4 7.5t9 3.5h54v39h-54z" />
    <glyph glyph-name="icjiesuanzhifubao58a5e5" unicode="&#xe66f;" 
d="M1024 174v503q0 91 -64 155t-155 64h-586q-91 0 -155 -64t-64 -155v-586q0 -91 64 -155t155 -64h586q77 0 137 48t76 122q-323 164 -370 190q-9 0 -14 4q-140 -166 -347 -120q-8 -2 -26 12.5t-34.5 40t-24 56.5t9 68t61.5 68q0 1 7 4.5l11 5.5t15 6t21 5.5t26.5 3t33 0.5
t40 -4t48 -9t56.5 -16t66 -23q42 83 42 115q5 5 5 10h-320v28h157v64h-185v28h185v98h93v-98h204v-28h-204v-64h84h78h10q-19 -89 -70 -181q37 -13 176 -68.5t172 -63.5zM556 264q-33 -42 -72 -67t-69.5 -32.5t-62.5 -6.5t-47.5 5t-27.5 8q-20 5 -33.5 24.5t-16 43t9 46.5
t36.5 35q41 13 82.5 14.5t80 -8t67 -20.5t62.5 -28z" />
    <glyph glyph-name="icjiesuanwenhao" unicode="&#xe670;" 
d="M678 415q-12 -15 -74 -69q-24 -20 -37 -45q-14 -26 -14 -58v-15h-94v15q0 50 18 83q16 36 99 109l15 17q25 31 25 64q0 45 -26 72q-26 26 -74 26q-60 0 -87 -38q-23 -31 -23 -89h-92q0 95 55 151t153 56q85 0 137 -47q52 -46 52 -125q0 -65 -33 -107zM551 72
q-18 -17 -45 -17t-45.5 18.5t-18.5 44.5q0 28 18 45t46 17q29 0 46 -17q19 -17 19 -45q0 -26 -20 -46zM512 896q-139 0 -257 -68.5t-186.5 -186.5t-68.5 -257t68.5 -257t186.5 -186.5t257 -68.5t257 68.5t186.5 186.5t68.5 257t-68.5 257t-186.5 186.5t-257 68.5v0z" />
    <glyph glyph-name="icjiesuangantan" unicode="&#xe671;" 
d="M512 896q-139 0 -257 -68.5t-186.5 -186.5t-68.5 -257t68.5 -257t186.5 -186.5t257 -68.5t257 68.5t186.5 186.5t68.5 257t-68.5 257t-186.5 186.5t-257 68.5zM475 457h74v-366h-74v366zM550 546q-16 -16 -38.5 -16t-38.5 16t-16 40t16 39q15 15 39 15t39 -15
q16 -15 16 -39q0 -23 -17 -40z" />
    <glyph glyph-name="icjiesuanright" unicode="&#xe672;" 
d="M0 427l427 -384l597 597l-85 85l-512 -512l-342 299z" />
    <glyph glyph-name="icsuccess" unicode="&#xe673;" 
d="M455 259l-166 166l-45 -45l188 -188l23 -23l347 347l-46 45zM0 384q0 139 68.5 257t186.5 186.5t257 68.5t257 -68.5t186.5 -186.5t68.5 -257t-68.5 -257t-186.5 -186.5t-257 -68.5t-257 68.5t-186.5 186.5t-68.5 257z" />
    <glyph glyph-name="icfail" unicode="&#xe674;" 
d="M512 896q-140 0 -257.5 -68.5t-186 -186t-68.5 -257.5t68.5 -257.5t186 -186t257.5 -68.5t257.5 68.5t186 186t68.5 257.5t-68.5 257.5t-186 186t-257.5 68.5zM555 107h-86v85h86v-85zM555 277h-86v384h86v-384z" />
    <glyph glyph-name="icshangxiangshuifei" unicode="&#xe63f;" 
d="M512 -43q-116 0 -214 57.5t-155.5 155.5t-57.5 214t57.5 214t155.5 155.5t214 57.5t214 -57.5t155.5 -155.5t57.5 -214t-57.5 -214t-155.5 -155.5t-214 -57.5zM512 853q-95 0 -182 -37t-150 -100t-100 -150t-37 -182t37 -182t100 -150t150 -100t182 -37t182 37t150 100
t100 150t37 182t-37 182t-100 150t-150 100t-182 37zM512 640q-18 0 -30.5 -12.5t-12.5 -30.5v-256q0 -17 12.5 -29.5t30.5 -12.5t30.5 12.5t12.5 29.5v256q0 18 -12.5 30.5t-30.5 12.5zM512 256q-18 0 -30.5 -12.5t-12.5 -30t12.5 -30t30.5 -12.5t30.5 12.5t12.5 30
t-12.5 30t-30.5 12.5v0z" />
    <glyph glyph-name="iconbeibeiff3366" unicode="&#xe675;" 
d="M901 157q-50 4 -92.5 30t-69.5 67q-1 2 -3 2t-3 -2q-27 -41 -69.5 -67t-92.5 -30q-13 -1 -23 8t-10.5 22t8 23t21.5 11q54 5 93 44q44 44 44 106v64q0 13 9.5 22.5t22.5 9.5t22.5 -9.5t9.5 -22.5v-64q0 -62 44 -106q39 -39 93 -44q13 -1 21.5 -11t8 -23t-10.5 -22t-23 -8
zM453 157q-50 4 -92.5 30t-69.5 67q-1 2 -3 2t-3 -2q-27 -41 -69.5 -67t-92.5 -30q-13 -1 -23 8t-10.5 22t8 23t21.5 11q54 5 93 44q44 44 44 106v64q0 13 9.5 22.5t22.5 9.5t22.5 -9.5t9.5 -22.5v-64q0 -62 44 -106q39 -39 93 -44q13 -1 21.5 -11t8 -23t-10.5 -22t-23 -8z
M288 611q76 0 129.5 -42t53.5 -101v-148q0 -13 -9.5 -22.5t-22.5 -9.5t-22.5 9.5t-9.5 22.5v148q0 33 -35 56t-84 23t-84 -23t-35 -56v0v-148q0 -13 -9 -22.5t-22.5 -9.5t-23 9.5t-9.5 22.5v148v0q0 59 53.5 101t129.5 42zM736 611q76 0 129.5 -42t53.5 -101v-148
q0 -13 -9.5 -22.5t-22.5 -9.5t-22.5 9.5t-9.5 22.5v148q0 33 -35 56t-84 23t-84 -23t-35 -56v0v-148q0 -13 -9.5 -22.5t-22.5 -9.5t-22.5 9.5t-9.5 22.5v148v0q0 59 53.5 101t129.5 42zM842 896h-660q-75 0 -128.5 -53.5t-53.5 -128.5v-660q0 -75 53.5 -128.5t128.5 -53.5
h660q75 0 128.5 53.5t53.5 128.5v660q0 75 -53.5 128.5t-128.5 53.5v0z" />
    <glyph glyph-name="combinedshape" unicode="&#xe60f;" 
d="M512 -128q139 0 257 68.5t186.5 186.5t68.5 257t-68.5 257t-186.5 186.5t-257 68.5t-257 -68.5t-186.5 -186.5t-68.5 -257t68.5 -257t186.5 -186.5t257 -68.5zM586 0q-47 -15 -51 11q-2 16 11 23q30 17 43.5 38.5t12 41.5t-11 40.5t-21 34.5t-23.5 24q-14 13 -22.5 40.5
t-10 41.5t-1.5 21q-96 -37 -109 -158v-4q-1 -3 -1 -8t1.5 -19.5t6.5 -28.5t17.5 -32t30.5 -32q19 -2 18 -20q-1 -17 -17 -18q-8 -1 -18 4q-88 22 -145 89.5t-57 153.5q0 77 30 136.5t106 141.5q40 42 65 110.5t18 93.5q-5 20 78.5 -55.5t166 -192.5t81.5 -201l0.5 -2.5
t0.5 -6.5v-9.5v-12.5t-1 -13q-6 -78 -54.5 -140.5t-143.5 -91.5z" />
    <glyph glyph-name="combinedshape1" unicode="&#xe676;" 
d="M512 896q-212 0 -362 -150t-150 -362t150 -362t362 -150t362 150t150 362t-150 362t-362 150zM707 626l47 48q11 10 24.5 10t23.5 -10t10 -23.5t-10 -24.5l-48 -47q-10 -11 -23.5 -11t-23.5 11q-11 7 -11 22t11 25zM478 759q0 16 9.5 25.5t24.5 9.5t24.5 -9.5t9.5 -25.5
v-68q0 -15 -9.5 -24.5t-24.5 -9.5t-24.5 9.5t-9.5 24.5v68zM222 674q10 10 23.5 10t24.5 -10l47 -48q11 -10 11 -23.5t-10.5 -24t-24 -10.5t-23.5 11l-48 47q-10 11 -10 24.5t10 23.5zM137 350q-16 0 -25.5 9.5t-9.5 24.5t9.5 24.5t25.5 9.5h68q15 0 24.5 -9.5t9.5 -24.5
t-9.5 -24.5t-24.5 -9.5h-68zM317 142l-47 -48q-11 -10 -24.5 -10t-23.5 10t-10 23.5t10 24.5l48 47q10 11 23.5 11t23.5 -11q11 -7 11 -22t-11 -25zM546 9q0 -16 -9.5 -25.5t-24.5 -9.5t-24.5 9.5t-9.5 25.5v68q0 15 9.5 24.5t24.5 9.5t24.5 -9.5t9.5 -24.5v-68zM512 179
q-84 0 -144.5 60.5t-60.5 144.5t60.5 144.5t144.5 60.5t144.5 -60.5t60.5 -144.5t-60.5 -144.5t-144.5 -60.5zM802 94q-10 -10 -23.5 -10t-24.5 10l-47 48q-11 10 -11 23.5t10.5 24t24 10.5t23.5 -11l48 -47q10 -11 10 -24.5t-10 -23.5zM887 350h-68q-15 0 -24.5 9.5
t-9.5 24.5t9.5 24.5t24.5 9.5h68q16 0 25.5 -9.5t9.5 -24.5t-9.5 -24.5t-25.5 -9.5zM512 384zM375 384q0 57 40 97t97 40t97 -40t40 -97t-40 -97t-97 -40t-97 40t-40 97z" />
    <glyph glyph-name="iczhuanchangtime" unicode="&#xe677;" 
d="M512 896q-140 0 -257.5 -68.5t-186 -186t-68.5 -257.5t68.5 -257.5t186 -186t257.5 -68.5t257.5 68.5t186 186t68.5 257.5t-68.5 257.5t-186 186t-257.5 68.5zM512 -49q-118 0 -218 57.5t-157.5 157.5t-57.5 218t57.5 218t157.5 157.5t218 57.5t218 -57.5t157.5 -157.5
t57.5 -218t-57.5 -218t-157.5 -157.5t-218 -57.5zM709 423h-158v237q0 17 -10.5 28t-28.5 11t-28.5 -11t-10.5 -28v-276q0 -16 11.5 -27.5t27.5 -11.5h197q18 0 28.5 10.5t10.5 28.5t-10.5 28.5t-28.5 10.5z" />
    <glyph glyph-name="icshifuhaimaile" unicode="&#xe678;" 
d="M512 -128q139 0 257 68.5t186.5 186.5t68.5 257t-68.5 257t-186.5 186.5t-257 68.5t-257 -68.5t-186.5 -186.5t-68.5 -257t68.5 -257t186.5 -186.5t257 -68.5zM271 337q-46 46 -46 111t46 111.5t111.5 46.5t111.5 -46l24 -24l24 24q46 46 111 46t111.5 -46.5t46.5 -111.5
t-46 -111l-219 -219q-12 -12 -28.5 -12t-27.5 12l-84 83z" />
    <glyph glyph-name="imgloading" unicode="&#xe679;" horiz-adv-x="1039" 
d="M902 18q-123 11 -211 99q-101 101 -101 244v145q0 30 -21 51.5t-51 21.5t-51 -21.5t-21 -51.5v-145q0 -143 -101 -244q-88 -88 -211 -99q-30 -2 -49.5 -25t-18 -53t24 -50t52.5 -18q114 10 210.5 68.5t157.5 152.5q2 4 7 4t7 -4q61 -94 157.5 -152.5t210.5 -68.5
q30 -2 52.5 18t24 50t-18 53t-49.5 25zM103 233q0 -30 21 -51.5t51 -21.5t51.5 21.5t21.5 51.5v338h-1q0 74 79.5 127t191.5 53t191 -53t79 -127v-338q0 -30 21.5 -51.5t51.5 -21.5t51 21.5t21 51.5v338q0 88 -55.5 163t-151 118.5t-208.5 43.5t-208.5 -43.5t-151 -118.5
t-55.5 -163v0v-338v0z" />
    <glyph glyph-name="listarrow" unicode="&#xe67a;" 
d="M311 53q-12 -12 -12 -29.5t12.5 -30t30 -13t29.5 12.5l373 373q12 12 12.5 29.5t-12.5 30.5l-373 372q-12 13 -29.5 13t-30 -12.5t-12.5 -30t12 -30.5l343 -342z" />
    <glyph glyph-name="wodebeibeiwodeqianbao" unicode="&#xe67b;" 
d="M796 896h-568q-94 0 -161 -67t-67 -161v-568q0 -94 67 -161t161 -67h568q94 0 161 67t67 161v568q0 94 -67 161t-161 67zM476 621q38 19 57 30q34 17 43 23q23 12 44 12q13 0 32 -8q19 -11 27 -19l42 -66h-315q13 6 36.5 14.5t33.5 13.5zM815 407h-168q-18 0 -40.5 -20
t-22.5 -50t23.5 -50.5t39.5 -20.5h168v-102q0 -9 -3 -25q-6 -11 -13.5 -18.5t-19.5 -13.5q-7 -4 -24 -4h-503q-9 0 -24 4q-16 8 -21 13q-12 12 -14 19q-5 12 -5 25v321q0 27 19 43q17 17 43 17h501q26 0 44 -17q19 -19 19 -43v-78h1zM675 361v-47h-47v47h47z" />
    <glyph glyph-name="iconsglobalpaixu" unicode="&#xe67c;" 
d="M91 545q-36 39 -23.5 67t66.5 28h756q53 0 66 -28t-23 -67l-336 -376q-35 -40 -85 -40t-85 40z" />
    <glyph glyph-name="btnglosel" unicode="&#xe67d;" 
d="M1024 896v-1024h-1024zM556 180q-7 8 -18 8t-18.5 -8t-7.5 -18.5t8 -18.5l86 -86q7 -7 18 -7t19 7l245 246q8 8 8 18.5t-8 18t-18.5 7.5t-18.5 -7l-227 -227z" />
    <glyph glyph-name="icfunfootprint" unicode="&#xe67e;" 
d="M339 567v0v0q-12 -3 -26 -14q-24 -20 -25 -50t28 -87l-4 7q13 -19 24 -48q54 -137 -20 -278l5 13q0 -1 -1 -6q-5 -31 3 -56q10 -33 46 -44l5 -1l4 -2q5 -3 16 -6q91 -26 168 34q35 26 65 70q71 103 93 173.5t14 172.5q-1 25 -29 56q-92 101 -375 65zM323 624
q319 41 429 -88q39 -44 41 -88q9 -116 -17 -195.5t-101 -187.5q-103 -149 -253 -135q-42 4 -70 18q-93 29 -92 136q0 23 4 40q16 31 25 62.5t10 56.5t-1.5 48.5t-8.5 41t-11.5 30.5t-9.5 19.5l-4 6.5q-28 53 -32 96.5t9 68t32.5 41.5t33 23t16.5 6zM671.5 780
q-24.5 0 -41.5 -17t-17 -41.5t17 -41.5t41.5 -17t41.5 17t17 41.5t-17 41.5t-41.5 17zM818.5 692q-24.5 0 -41.5 -17t-17 -41.5t17 -41.5t41.5 -17t41.5 17t17 41.5t-17 41.5t-41.5 17zM480.5 839q-30.5 0 -52 -21.5t-21.5 -52t21.5 -52t52 -21.5t52 21.5t21.5 52t-21.5 52
t-52 21.5zM245 839q-43 0 -73 -30t-30 -72.5t30 -73t73 -30.5t73 30.5t30 73t-30 72.5t-73 30z" />
    <glyph glyph-name="icfuncollect" unicode="&#xe67f;" 
d="M512 839v0q-46 0 -71 -38q-3 -4 -21 -37q-64 -113 -99 -169q-55 -15 -159 -32q-36 -6 -45 -9q-41 -12 -55 -55q-15 -43 11 -79q4 -5 28 -32q85 -94 125 -145q-4 -61 -22 -176q-6 -40 -6 -48q-1 -37 24.5 -63t61.5 -26q15 0 28 5q7 2 38 18q105 55 162 79q54 -23 156 -76
q35 -18 43 -21q14 -5 29 -5q36 0 61.5 26t24.5 62q0 7 -5 42q-19 119 -22 183q37 48 119 140q28 31 33 37q26 35 12 78t-55 56q-8 2 -40 8q-107 17 -165 33q-33 53 -96 164q-20 37 -24 42q-25 38 -71 38zM512 778q13 0 20 -10q3 -4 25.5 -44t53 -93t53.5 -88
q40 -12 93.5 -23t91.5 -17t40 -7q12 -3 16 -16.5t-3 -23.5q-3 -4 -33 -37t-68.5 -78t-63.5 -79q1 -43 8 -101.5t13.5 -99.5t6.5 -44q1 -11 -7 -19t-18 -8q-4 0 -7 2q-5 1 -42.5 21t-89 45t-89.5 39q-39 -15 -91.5 -40t-89.5 -44.5t-40 -20.5q-3 -2 -7 -2q-10 0 -18 8t-7 19
q0 5 6.5 46.5t13.5 98.5t8 100q-25 34 -64.5 80t-69 79t-31.5 35q-7 10 -3 23.5t16 16.5q4 2 42.5 8t91 16.5t91.5 22.5q23 36 54.5 89.5t53.5 93t24 42.5q7 10 20 10v0z" />
    <glyph glyph-name="icfungroup" unicode="&#xe680;" 
d="M884 434q26 40 26 92q0 68 -46 115q-40 40 -98 46l-17 1q-3 -1 -47 -1q-35 47 -85 71q2 25 -8 46t-28 30q-13 8 -32 3.5t-31 -23.5q-10 -15 -48 -35q-91 -17 -147 -91h-18.5h-19.5h-10q-68 0 -115 -47q-46 -47 -46 -114q-1 -53 26 -92q-39 -39 -61 -89.5t-22 -102.5
q0 -35 33 -60.5t71 -25.5h27q-7 -36 -7 -65q0 -32 24 -57t62 -39.5t78 -25t81 -14.5t60.5 -5.5t26 -1.5t26.5 1.5t60.5 5.5t80.5 14.5t78.5 25t62 39.5t23.5 57q0 29 -6 65h25q38 0 71 25.5t33 60.5q0 52 -22 102.5t-61 88.5zM863 215h-40q-38 112 -133 174q60 67 60 157
q0 41 -16 83q11 0 17 1q42 -1 72 -30q30 -30 30 -74q0 -23 -8 -43t-19 -29l-29 -22l29 -23q39 -30 61 -75t22 -91q0 -7 -15 -17.5t-31 -10.5zM512.5 7q-49.5 0 -112 10.5t-112 31t-49.5 43.5q0 82 44 155t115 109l40 21l-36 28q-68 53 -68 141q0 66 42 116t108 60l4 1l5 2
q45 24 66 48q2 -11 -2 -23l-9 -26l26 -10q53 -19 85.5 -65.5t32.5 -102.5q0 -86 -67 -140l-36 -29l41 -20q72 -36 114 -107t42 -158q0 -23 -49.5 -43.5t-112 -31t-112 -10.5zM161 215q-16 0 -31 10.5t-15 17.5q0 47 22.5 91.5t60.5 74.5l29 23l-29 23q-11 8 -19 28t-8 44
q0 43 30 73q29 30 72 30q6 0 18 -1q-15 -40 -15 -83q0 -92 61 -159q-93 -63 -133 -172h-43zM506 424q-37 0 -66 23.5t-36 59.5q-3 11 3.5 21t18 12.5t21.5 -4t12 -18.5q4 -15 17.5 -26t29.5 -11q18 0 31 10.5t16 26.5q2 11 11.5 18t21.5 4.5t18.5 -12t4.5 -21.5
q-7 -36 -36 -59.5t-67 -23.5z" />
    <glyph glyph-name="icfunlinebrand" unicode="&#xe614;" 
d="M785 862h-546q-171 0 -171 -137l-34 -682q0 -57 40 -97t97 -40h682q57 0 97 40t40 97l-34 682q0 72 -46 104.5t-125 32.5zM785 794q36 0 59 -6.5t31 -19t10 -21t2 -22.5q0 -1 1 -3l34 -681q-1 -28 -21 -47.5t-48 -19.5h-682q-28 0 -48 19.5t-21 47.5l34 681q1 2 1 3
q0 15 1.5 23.5t10 21t31.5 18.5t59 6h546zM273 613q0 -96 74.5 -162.5t183.5 -66.5q86 0 153 69.5t67 159.5v78h-68v-78q0 -62 -47 -111.5t-105 -49.5q-81 0 -135.5 47t-54.5 114v78h-68v-78z" />
    <glyph glyph-name="icqinziyoumap" unicode="&#xe616;" 
d="M849 724l-287 -712l-63 351l-362 73l712 288v0zM891 765q-27 28 -63 13l-713 -287q-18 -8 -28 -24.5t-8 -35.5q2 -21 17 -36q12 -13 30 -16l323 -66l55 -312q3 -18 16 -31q15 -15 36 -17q19 -2 36 8t24 29l288 712q14 36 -13 63v0v0z" />
    <glyph glyph-name="icfunflatstar" unicode="&#xe61b;" 
d="M512 -128q139 0 257 68.5t186.5 186.5t68.5 257t-68.5 257t-186.5 186.5t-257 68.5t-257 -68.5t-186.5 -186.5t-68.5 -257t68.5 -257t186.5 -186.5t257 -68.5zM683 295q1 -35 6.5 -81t10.5 -78.5t5 -34.5q0 -10 -8.5 -16.5t-17.5 -3.5q-3 2 -32.5 17.5t-70 35t-71.5 30.5
q-30 -11 -71.5 -31t-71 -35.5t-31.5 -16.5q-9 -3 -17.5 3.5t-8.5 16.5q0 4 5.5 37t11 78t6.5 78q-20 27 -51 63.5t-54.5 62.5t-24.5 28q-6 8 -3 18.5t13 12.5q3 1 33.5 6t71.5 13t72 18q19 28 43.5 70.5t42 73.5t18.5 34q6 8 16.5 8t15.5 -8q2 -4 20 -35.5t42 -73t42 -69.5
q32 -10 74 -18t72 -13t32 -6q9 -3 12.5 -13t-2.5 -18q-2 -4 -25.5 -29.5t-54.5 -61.5t-50 -62z" />
    <glyph glyph-name="icfunlinespeaker" unicode="&#xe61c;" 
d="M171 697h142h-142zM313 71h-142q-36 0 -61 25t-25 60v456q0 35 25 60t61 25h142v-626zM142 156q0 -11 8.5 -19.5t20.5 -8.5h142v512h-142q-12 0 -20.5 -8.5t-8.5 -19.5v-456zM768 772v-776q0 -47 -30.5 -67.5t-74.5 -2.5l-350 145v626l350 145q43 18 74 -2.5t31 -67.5z
M685 -22q15 -6 20.5 -2.5t5.5 20.5v776q0 17 -5.5 20.5t-20.5 -2.5l-314 -130l-2 -552zM967 356q12 0 20.5 8t8.5 20t-8.5 20t-20.5 8h-114q-11 0 -19.5 -8t-8.5 -20t8.5 -20t19.5 -8h114zM980 572q10 5 14 16.5t-1.5 22t-16.5 14t-22 -1.5l-113 -57q-11 -5 -14.5 -16.5
t1.5 -22t16.5 -14t21.5 1.5zM954 117q11 -5 22 -1.5t16.5 14t1.5 21.5t-14 17l-114 57q-10 5 -21.5 1t-16.5 -14.5t-1.5 -21.5t14.5 -16z" />
    <glyph glyph-name="icfunlineexpenses" unicode="&#xe61e;" 
d="M977 384q0 95 -36.5 181t-99 148.5t-148.5 99t-181 36.5t-181 -36.5t-148.5 -99t-99 -148.5t-36.5 -181t36.5 -181t99 -148.5t148.5 -99t181 -36.5t181 36.5t148.5 99t99 148.5t36.5 181zM0 384q0 139 68.5 257t186.5 186.5t257 68.5t257 -68.5t186.5 -186.5t68.5 -257
t-68.5 -257t-186.5 -186.5t-257 -68.5t-257 68.5t-186.5 186.5t-68.5 257zM593 392l112 -1q11 0 18 -7.5t7 -18.5t-7.5 -18.5t-17.5 -6.5l-146 1l-1 -76l147 -2q10 0 17.5 -7.5t7.5 -18.5t-7.5 -18t-17.5 -7l-147 1v-141q0 -10 -7.5 -17.5t-18.5 -7.5h-27q-11 0 -18 7.5
t-7 18.5v141l-145 2q-11 0 -18.5 7.5t-7.5 18t7.5 18t18.5 7.5l145 -2v77l-145 1q-10 1 -17.5 8.5t-7.5 18t7.5 18t17.5 7.5l112 -1l-135 217q-12 19 -1 38.5t33 18.5q21 0 32 -18l144 -249l145 246q11 18 32 18q22 -1 32.5 -20.5t-0.5 -38.5z" />
    <glyph glyph-name="icchangedate" unicode="&#xe61f;" 
d="M768 832h63q80 0 136.5 -56.5t56.5 -135.5v-576q0 -53 -37.5 -90.5t-90.5 -37.5h-768q-53 0 -90.5 37.5t-37.5 90.5v576q0 80 56 136t137 56h63v64h64v-64h384v64h64v-64zM704 768h-384v-128h-64v128h-63q-54 0 -91.5 -37.5t-37.5 -90.5v-576q0 -26 18.5 -45t45.5 -19
h768q27 0 45.5 19t18.5 45v576q0 53 -37.5 90.5t-91.5 37.5h-63v-128h-64v128zM192 512h128v-64h-128v64zM448 512h128v-64h-128v64zM704 512h128v-64h-128v64zM192 384h128v-64h-128v64zM448 384h128v-64h-128v64zM704 384h128v-64h-128v64zM192 256h128v-64h-128v64z
M448 256h128v-64h-128v64zM704 256h128v-64h-128v64z" />
    <glyph glyph-name="icarrowup" unicode="&#xe621;" 
d="M394 427v-309q0 -40 28 -68t68 -28t68 28t28 68v309l176 -176l90 91l-362 362l-45 -45l-317 -317l91 -91z" />
    <glyph glyph-name="arrow" unicode="&#xe6d3;" 
d="M512 867l483 -483l-483 -483v966z" />
    <glyph glyph-name="ic_want_" unicode="&#xe6f4;" 
d="M395.5 570q10.5 0 17 -6.5t6.5 -16.5v-47q0 -10 -6.5 -16.5t-17 -6.5t-17 6.5t-6.5 16.5v47q0 10 6.5 16.5t17 6.5zM628.5 570q10.5 0 17 -6.5t6.5 -16.5v-47q0 -10 -6.5 -16.5t-17 -6.5t-17 6.5t-6.5 16.5v47q0 10 6.5 16.5t17 6.5zM512 175q10 0 16.5 -6.5t6.5 -17.5
v-163q0 -10 -6.5 -16.5t-16.5 -6.5t-16.5 6.5t-6.5 16.5v163q0 11 6.5 17.5t16.5 6.5zM184 130q3 9 12 12.5t18 -0.5l212 -98q8 -3 11.5 -12t0.5 -18q-4 -9 -13 -12t-18 0l-212 98q-8 4 -11.5 13t0.5 17zM833 130q-3 9 -12 12.5t-18 -0.5l-212 -98q-8 -3 -11.5 -12t-0.5 -18
q4 -9 13 -12t18 0l212 98q8 4 11.5 13t-0.5 17zM414 417q7 7 16.5 7t16.5 -7q3 -5 8.5 -11t23 -16.5t36 -10.5t35 9t23.5 18l6 8q8 7 17 8t16 -5l-2 2q7 -7 8 -16t-6 -17q-1 -2 -3.5 -5t-11.5 -11.5t-19 -15t-27.5 -12t-36.5 -5.5t-36 5t-28 12t-19.5 13.5t-12.5 11.5l-4 5
q-7 7 -7 16.5t7 16.5zM526 147q-171 0 -282 103t-125 274q-10 129 37 181q13 14 36 16.5t41.5 -1.5t52.5 -15q4 -1 12.5 -3.5t14.5 -4t15 -3.5t15 -3.5t12.5 -2t10.5 0t6 2.5q29 32 52 68q14 22 23.5 33t26 21.5t36.5 10.5t41 -13.5t32.5 -26.5t33.5 -42q28 -38 46 -53
q3 -2 7.5 -2t12 0.5t14.5 1.5t17 3t17 3.5t17.5 4t14.5 3.5q36 8 54.5 11.5t37.5 1.5t29 -13q14 -18 20.5 -58.5t5 -72.5t-1.5 -51q-25 -167 -130.5 -270.5t-251.5 -103.5zM200 675q-7 0 -9 -2q-31 -34 -26 -147q6 -72 29.5 -129.5t58.5 -95.5t81 -63t93.5 -36t98.5 -11
q71 0 131.5 28.5t101 76.5t66 106.5t34.5 123.5q5 33 1.5 80t-13.5 64q-14 3 -74 -14q-4 -1 -11 -2q-38 -9 -56.5 -12t-41 -1t-33.5 13q-3 2 -52 58q-15 20 -24 31t-22.5 21.5t-22.5 10.5q-13 0 -21 -8t-28 -36q-33 -50 -56 -75q-13 -14 -36.5 -16.5t-43 2t-53.5 14.5
q-12 7 -35 13t-37 6z" />
    <glyph glyph-name="ic_wantpress_" unicode="&#xe6f5;" 
d="M528 147q-174 0 -287 102.5t-127 274.5q-10 129 37 181q12 13 34 15.5t38.5 -0.5t49.5 -12q7 -2 11 -3q80 -22 88 -14q17 18 54 68q15 22 24 33t25.5 21.5t36.5 10.5q16 1 30 -4.5t30 -20.5t23.5 -23.5t25.5 -30.5q29 -38 47 -54q10 -6 102 14q38 9 56 12t37.5 1
t27.5 -13q15 -18 21.5 -58t6 -72.5t-3.5 -50.5q-25 -169 -131.5 -273t-255.5 -104zM393 570q10 0 17 -7t7 -16v-47q0 -10 -7.5 -16.5t-16.5 -6.5q-10 0 -16.5 7t-6.5 16v47q0 9 6.5 16t16.5 7zM631 570q10 0 16.5 -7t6.5 -16v-47q0 -10 -7 -16.5t-16 -6.5q-10 0 -17 7t-7 16
v47q0 9 7 16t17 7zM514 175q14 0 24.5 -10.5t10.5 -24.5v-140q0 -14 -10.5 -24.5t-24.5 -10.5t-24.5 10.5t-10.5 24.5v140q0 14 10.5 24.5t24.5 10.5zM177 130q7 14 19.5 18.5t26.5 -1.5l191 -89q14 -7 18.5 -19.5t-2 -26.5t-19.5 -19t-27 2l-191 89q-12 7 -16.5 19.5
t0.5 26.5zM849 130q-7 14 -19.5 18.5t-26.5 -1.5l-191 -89q-14 -7 -18.5 -19.5t2.5 -26.5t19.5 -19t26.5 2l191 89q12 7 17 19.5t-1 26.5zM412 393.5q7 6.5 16.5 6.5t16.5 -7q2 -4 7.5 -10t24 -16.5t37.5 -10.5q12 0 23 3.5t18.5 9t13 10.5t8.5 8l2 4q16 15 33 2l-2 3
q7 -8 8 -17t-6 -16q-1 -2 -3.5 -5.5t-11.5 -11.5t-19.5 -14.5t-28 -12t-37.5 -5.5q-31 0 -56.5 12.5t-35.5 24.5l-10 12q-6 5 -5.5 14.5t7.5 16z" />
    <glyph glyph-name="pintujiantou" unicode="&#xe6f6;" 
d="M614 282v204h205v-204h-205zM410 77v205h204v-205h-204zM205 -128v205h205v-205h-205zM410 691h204v-205h-204v205zM205 896h205v-205h-205v205z" />
  </font>
</defs>
</svg>
